<svg width="156" height="14" viewBox="0 0 156 14" fill="none" xmlns="http://www.w3.org/2000/svg">
<path fill-rule="evenodd" clip-rule="evenodd" d="M93.3611 6.39436C72.6003 6.64302 51.8292 7.62944 31.1588 9.39263C21.3315 10.2311 9.91898 10.1263 0.387662 12.9848C-0.0872588 13.1286 0.0031883 13.5602 0.013468 13.6033C0.0340273 13.6917 0.120399 13.9855 0.498691 13.9999C0.539809 14.002 0.829676 13.9609 0.940697 13.9465C3.75527 13.5766 6.55957 13.1451 9.3762 12.7957C19.1008 11.5853 28.8541 10.6709 38.6219 9.8694C51.5866 8.80491 64.6623 8.23771 77.662 7.79383C84.7776 7.55134 92.0639 7.87396 99.2021 7.37254C101.823 7.35816 104.445 7.35615 107.066 7.36437C118.024 7.40341 128.97 7.81852 139.91 8.38775C143.427 8.57065 146.11 8.76793 149.554 8.9015C150.861 8.95288 152.936 8.98782 154.379 9.01042C154.591 9.01453 155.132 9.0186 155.356 9.02066C155.378 9.02477 155.401 9.02477 155.426 9.02477C155.512 9.02477 155.553 9.0186 155.561 9.0186C156.051 8.94668 156.005 8.48431 155.993 8.41444C155.991 8.40006 155.917 8.0096 155.496 7.99522C155.395 7.99111 154.673 7.98703 154.396 7.98292C152.961 7.96032 150.894 7.92538 149.593 7.87606C146.156 7.74248 143.475 7.5452 139.963 7.36231C129.007 6.79307 118.045 6.37591 107.07 6.33686C105.73 6.33275 104.387 6.3307 103.047 6.33275C103.001 6.21562 102.901 6.0841 102.679 6.02656C102.471 5.97313 100.985 5.92587 100.411 5.8786C96.1654 5.52925 96.2908 5.54569 91.6198 5.26005C84.5453 4.82644 83.468 4.72775 76.1098 4.54486C62.7441 4.21195 49.3724 4.2387 36.0047 4.27158C29.4051 4.29007 22.3389 4.736 15.6386 3.90372C17.8466 3.64479 20.0629 3.45574 22.2751 3.23996C29.8286 2.50427 37.3883 2.04804 44.9727 1.72746C63.1656 0.958888 81.3874 0.652717 99.5742 1.70077C95.7028 1.73776 91.8336 1.82404 87.9622 1.87953C72.2035 2.10969 56.2926 1.93709 40.5668 3.13104C40.2851 3.15365 40.0734 3.40023 40.0939 3.68177C40.1145 3.96536 40.3632 4.17704 40.6449 4.15649C56.3502 2.96253 72.2385 3.13719 87.9767 2.90703C93.8237 2.82277 99.6687 2.67072 105.516 2.71593C107.522 2.73237 109.529 2.80636 111.536 2.83102C111.932 2.83718 112.954 2.91527 113.1 2.88239C113.423 2.81047 113.493 2.57207 113.513 2.45494C113.524 2.38507 113.557 1.98229 113.063 1.83844C109.696 0.856146 103.48 0.901356 100.207 0.708186C81.7965 -0.380965 63.3486 -0.0768331 44.9295 0.699958C37.3266 1.02259 29.7485 1.48089 22.1744 2.21863C19.5284 2.47551 16.8763 2.69745 14.2406 3.03858C13.815 3.09406 12.859 3.17422 12.3964 3.25848C12.2031 3.29341 12.0633 3.3427 12.0016 3.37763C11.7611 3.51326 11.7179 3.71055 11.7179 3.84412C11.7159 3.94687 11.759 4.30855 12.2627 4.40719C19.9375 5.9094 28.2888 5.31963 36.0067 5.29908C49.3662 5.2662 62.7277 5.23945 76.0851 5.57236C83.4248 5.75525 84.498 5.85188 91.5581 6.28549C92.255 6.32659 92.8451 6.36354 93.3611 6.39436Z" fill="#FA5959"/>
</svg>
