<svg width="80" height="46" viewBox="0 0 80 46" fill="none" xmlns="http://www.w3.org/2000/svg">
<g clip-path="url(#clip0_468_2757)">
<mask id="mask0_468_2757" style="mask-type:luminance" maskUnits="userSpaceOnUse" x="0" y="0" width="80" height="46">
<path d="M0 0.5H80V45.5H0V0.5Z" fill="white"/>
</mask>
<g mask="url(#mask0_468_2757)">
<path fill-rule="evenodd" clip-rule="evenodd" d="M41.3123 3.4376C40.7957 3.5126 40.2082 3.89593 39.9165 4.34593C39.6332 4.79177 39.5248 5.3751 39.6415 5.86677C39.7832 6.4626 39.8165 6.50426 41.8082 8.50843L43.6457 10.3501L45.4873 8.50843C47.4373 6.55843 47.4915 6.49593 47.6457 5.95843C47.7957 5.4501 47.679 4.77093 47.3707 4.3251C46.9707 3.74177 46.3873 3.43343 45.6832 3.43343C45.0332 3.43343 44.6582 3.6126 44.0248 4.2251L43.6415 4.59593L43.2498 4.20426C42.604 3.55843 42.0373 3.33343 41.3123 3.4376Z" fill="#FA5959"/>
<path fill-rule="evenodd" clip-rule="evenodd" d="M37.6663 7.08763C37.4872 7.11679 37.0705 7.27513 36.908 7.37513C36.3122 7.75429 35.958 8.39179 35.958 9.10013C35.958 9.72929 36.1872 10.196 36.783 10.7835L37.1205 11.1168L36.733 11.521C36.1413 12.1376 35.958 12.5251 35.958 13.1668C35.958 13.771 36.1622 14.2293 36.6205 14.6501C37.2663 15.2501 38.1538 15.3543 38.958 14.9293C39.1372 14.8335 39.608 14.3876 41.033 12.9626L42.8747 11.121L41.033 9.27929C39.4455 7.70013 39.1497 7.42513 38.9288 7.31263C38.5122 7.10429 38.058 7.02513 37.6663 7.08763Z" fill="#FA5959"/>
<path fill-rule="evenodd" clip-rule="evenodd" d="M48.8292 7.13359C48.6792 7.17109 48.45 7.27109 48.325 7.34609C48.1667 7.44193 47.4792 8.10026 46.2625 9.31693L44.4375 11.1419L46.2917 12.9878C47.9458 14.6336 48.175 14.8503 48.4167 14.9628C48.7583 15.1294 48.9833 15.1794 49.3583 15.1836C49.8792 15.1836 50.4625 14.9336 50.8208 14.5544C51.2833 14.0628 51.4792 13.3044 51.3125 12.6628C51.2083 12.2753 51.05 12.0253 50.6083 11.5711L50.1958 11.1461L50.5958 10.7253C51.1958 10.0919 51.4125 9.59609 51.3625 8.95443C51.3 8.15443 50.7792 7.47109 50.0125 7.18359C49.6792 7.05859 49.1792 7.03776 48.8292 7.13359Z" fill="#FA5959"/>
<path fill-rule="evenodd" clip-rule="evenodd" d="M41.7833 13.7962C39.7166 15.8712 39.7208 15.8671 39.6166 16.5296C39.4166 17.8337 40.5875 19.0087 41.9 18.8212C42.3875 18.7504 42.7416 18.5546 43.2458 18.0754L43.6666 17.6754L44.1 18.0921C44.5666 18.5379 44.8583 18.7171 45.2833 18.8046C46.3125 19.0212 47.3333 18.3921 47.6416 17.3546C47.7833 16.8754 47.7 16.2379 47.4375 15.7796C47.3666 15.6546 46.6291 14.8837 45.5041 13.7546C44.5083 12.7546 43.6791 11.9337 43.6666 11.9337C43.6541 11.9337 42.8083 12.7712 41.7833 13.7962Z" fill="#FA5959"/>
<path fill-rule="evenodd" clip-rule="evenodd" d="M25.5665 15.7713C24.679 15.8921 23.8582 16.1296 23.129 16.4796C20.8248 17.5754 19.8748 19.5004 19.6665 23.4963C19.6123 24.4879 19.5748 24.6171 19.2332 24.9588C18.8873 25.3004 18.7373 25.3504 17.9915 25.3504H17.4165V25.6379V25.9254L18.0123 25.9421C18.4998 25.9546 18.6373 25.9754 18.7998 26.0463C19.0748 26.1713 19.354 26.4421 19.4873 26.7213L19.604 26.9546V32.8296C19.604 38.4171 19.5998 38.7171 19.529 38.9546C19.3748 39.4546 19.1665 39.7213 18.7998 39.8963C18.5748 40.0004 18.079 40.0963 17.7623 40.1004H17.5415V40.4004V40.7046L18.279 40.6713C19.2957 40.6213 23.6373 40.6129 25.0748 40.6588L26.2498 40.6921V40.4046V40.1129L25.8623 40.0838C24.7665 40.0088 24.2123 39.6213 23.9707 38.7671C23.8998 38.5088 23.8957 38.1963 23.8957 32.7463V26.9963L24.004 26.7671C24.1582 26.4338 24.3415 26.2463 24.6582 26.0921L24.9332 25.9546L25.9873 25.9421L27.0415 25.9254V25.6379V25.3504H25.9998C25.054 25.3504 24.9415 25.3421 24.7332 25.2629C24.4415 25.1546 24.154 24.8796 24.0082 24.5671L23.8957 24.3296L23.8832 22.9754C23.8665 21.4379 23.929 19.7879 24.0248 19.1463C24.1665 18.1921 24.4248 17.6379 24.979 17.0754C25.5457 16.5004 26.0165 16.2921 26.8623 16.2379C27.5873 16.1963 28.2082 16.3421 28.8457 16.7129C29.0207 16.8171 29.1665 16.9046 29.1665 16.9129C29.1665 16.9213 29.0123 17.0088 28.8248 17.1088C27.8207 17.6296 27.3207 18.6546 27.5457 19.7338C27.7498 20.7254 28.679 21.3921 29.854 21.3921C30.4998 21.3921 30.9832 21.2088 31.379 20.8129C32.0623 20.1296 32.2248 18.9588 31.7665 18.0338C31.5665 17.6296 31.1082 17.1379 30.6457 16.8296C29.9832 16.3879 28.9582 15.9713 28.1873 15.8254C27.7457 15.7421 26.029 15.7088 25.5665 15.7713Z" fill="#FA5959"/>
<path fill-rule="evenodd" clip-rule="evenodd" d="M33.679 18.8838L33.4665 18.8963L33.4373 19.1963C33.2998 20.7422 32.7373 21.713 31.6707 22.2463C31.2415 22.463 30.8165 22.563 30.1998 22.588L29.6665 22.613V30.5547C29.6623 39.0755 29.6665 38.8755 29.454 39.3297C29.3373 39.5713 29.1207 39.8047 28.904 39.9047C28.704 40.0005 28.2415 40.1005 27.9915 40.1005H27.7915V40.4005V40.7047L28.4248 40.6797C30.0748 40.6088 32.679 40.588 34.229 40.638C35.1248 40.6672 35.8957 40.6963 35.9498 40.7088C36.0373 40.7255 36.0415 40.7172 36.0415 40.4213V40.113L35.654 40.088C34.704 40.0255 34.2207 39.6755 34.0123 38.8963C33.9457 38.638 33.9373 38.0172 33.9165 28.7463L33.8957 18.8713L33.679 18.8838Z" fill="#FA5959"/>
<path fill-rule="evenodd" clip-rule="evenodd" d="M73.7205 18.8794L73.4997 18.8961V19.0586C73.4997 19.1461 73.4788 19.3628 73.4538 19.5378C73.333 20.4086 73.0497 21.0711 72.583 21.5711C71.9622 22.2336 71.1955 22.5503 70.158 22.5711L69.708 22.5794V23.9836V25.3919H68.458H67.208V25.6836V25.9753H68.458H69.7038L69.7205 31.7753C69.733 36.9961 69.7413 37.6253 69.8038 38.0169C69.908 38.6461 70.0205 39.0253 70.2372 39.4753C70.3997 39.8128 70.483 39.9253 70.808 40.2461C71.1122 40.5503 71.258 40.6586 71.5413 40.8003C72.2413 41.1461 73.0663 41.2961 73.9997 41.2544C75.4913 41.1836 76.633 40.4961 77.3788 39.2169C77.5497 38.9294 77.833 38.3128 77.833 38.2378C77.833 38.2086 77.4538 37.9753 77.4038 37.9753C77.3913 37.9753 77.283 38.1544 77.1622 38.3753C76.7913 39.0419 76.308 39.4961 75.7955 39.6628C75.4705 39.7669 74.9122 39.7378 74.6413 39.5961C74.3997 39.4711 74.1955 39.2211 74.0955 38.9211C74.0247 38.7169 74.0205 38.3128 74.008 32.3961C73.9997 27.7169 74.0122 26.0753 74.0455 26.0336C74.083 25.9836 74.4038 25.9753 75.8163 25.9753H77.5413V25.6836V25.3919H75.7705H73.9997V22.1211C73.9997 20.3211 73.9872 18.8544 73.9705 18.8586C73.9497 18.8628 73.8372 18.8711 73.7205 18.8794Z" fill="#FA5959"/>
<path fill-rule="evenodd" clip-rule="evenodd" d="M10.229 32.3292L10.3332 32.4292V35.15C10.3332 37.7292 10.329 37.8792 10.254 37.9959C10.0207 38.375 9.47901 38.8292 9.07901 38.9792C8.57901 39.1709 7.91651 39.1625 7.47068 38.9542C7.02068 38.75 6.67484 38.3042 6.51651 37.725C6.39984 37.3125 6.41234 36.2 6.53318 35.7459C6.83318 34.6417 7.55818 33.775 8.87068 32.95C9.08734 32.8167 9.40818 32.5959 9.57901 32.4625C9.93318 32.1917 10.0665 32.1667 10.229 32.3292ZM7.99984 24.9792C7.34151 25.0417 6.49151 25.2125 5.90818 25.4084C4.05401 26.0167 3.04151 27.0209 2.97068 28.3125C2.90818 29.4417 3.47901 30.3584 4.43318 30.65C4.67901 30.725 4.78734 30.7334 5.22484 30.7125C5.96234 30.6792 6.40818 30.5084 6.85818 30.0917C7.39984 29.5834 7.59984 28.8792 7.43318 28.0667C7.30818 27.4459 6.88734 26.8542 6.36234 26.5584C6.09984 26.4125 6.04151 26.3375 6.04151 26.1459C6.04151 25.9917 6.15818 25.8959 6.51651 25.7542C6.95818 25.575 7.44568 25.5042 8.04151 25.5292C8.81234 25.5625 9.27901 25.75 9.68318 26.1875C9.94568 26.4709 10.0873 26.7417 10.2165 27.2042C10.304 27.5209 10.3082 27.6167 10.3082 29.2042L10.3123 30.8709L10.1915 31.1125C9.86651 31.75 9.10401 32.2084 7.11234 32.9584C5.33318 33.6292 4.77901 33.8834 4.08318 34.3417C3.08734 35 2.54151 35.7042 2.28734 36.6625C2.15818 37.15 2.15818 38.0209 2.28318 38.5375C2.65401 40.0167 3.89151 40.9209 5.67068 41.0042C7.22484 41.075 8.57068 40.5709 9.64151 39.5084C9.96234 39.1875 10.0748 39.1 10.1665 39.1C10.3332 39.1 10.4332 39.2125 10.5415 39.5167C10.7915 40.2292 11.2957 40.6625 12.154 40.9C12.4332 40.9792 12.5915 40.9917 13.3123 40.9917C13.9457 40.9917 14.2332 40.975 14.5123 40.9209C14.8957 40.8417 15.4873 40.65 15.7707 40.5084C16.0332 40.375 16.6248 39.975 16.6248 39.925C16.6248 39.9042 16.5665 39.7834 16.4915 39.6625L16.3582 39.4417L16.1748 39.5792C15.6373 39.9917 14.9707 40.0542 14.7957 39.7125C14.6457 39.4084 14.6457 39.4875 14.6207 34.2042C14.5957 28.6584 14.5957 28.6459 14.3748 27.7875C14.2707 27.3792 13.979 26.7709 13.7623 26.5125C13.004 25.6084 11.929 25.1292 10.2998 24.975C9.77901 24.925 8.56651 24.9292 7.99984 24.9792Z" fill="#FA5959"/>
<path fill-rule="evenodd" clip-rule="evenodd" d="M45.1457 25.6628C46.5999 26.367 47.3166 29.1128 47.2374 33.642C47.1916 36.2837 46.9041 37.992 46.3082 39.1962C45.9916 39.8378 45.5999 40.2753 45.1332 40.5045C44.9166 40.6128 44.8541 40.6212 44.4374 40.6212C44.0124 40.6212 43.9624 40.6128 43.7082 40.492C43.3457 40.317 43.0916 40.0837 42.8082 39.6628C42.1957 38.7378 41.8291 37.2587 41.6666 35.0587C41.6457 34.7503 41.6249 33.8587 41.6249 33.0795C41.6249 32.3003 41.6457 31.4087 41.6666 31.1003C41.8249 28.967 42.1874 27.4545 42.7624 26.567C43.1041 26.042 43.3582 25.8087 43.8207 25.617C44.0332 25.5253 44.1124 25.517 44.4791 25.5253C44.8416 25.5378 44.9291 25.5545 45.1457 25.6628ZM43.1457 24.9962C40.1457 25.3628 38.2166 27.0337 37.4791 29.9087C37.1957 31.0087 37.1499 31.4837 37.1499 33.1003C37.1499 34.3837 37.1582 34.6045 37.2416 35.1337C37.7874 38.6212 39.5499 40.542 42.7082 41.1003C43.4416 41.2295 44.8332 41.2628 45.6499 41.167C47.0041 41.0087 48.1624 40.592 49.0791 39.9253C49.4416 39.6587 50.1207 38.9462 50.3791 38.5587C51.0332 37.5753 51.4416 36.4003 51.6541 34.892C51.7582 34.1503 51.7582 32.0503 51.6541 31.3087C51.4999 30.2087 51.2374 29.2587 50.8791 28.492C49.9207 26.4545 48.0624 25.2337 45.5041 24.9753C44.9291 24.917 43.7124 24.9295 43.1457 24.9962Z" fill="#FA5959"/>
<path fill-rule="evenodd" clip-rule="evenodd" d="M61.2081 32.3084C61.2914 32.3917 61.2914 32.4459 61.2914 35.1709V37.9542L61.0872 38.1917C60.4747 38.9084 59.7456 39.2209 58.9872 39.1C58.2414 38.9834 57.8206 38.625 57.5497 37.8875C57.4414 37.5917 57.4372 37.5459 57.4372 36.7875C57.4414 36.0417 57.4497 35.975 57.5581 35.6209C57.8622 34.6167 58.5372 33.8209 59.7414 33.0292C60.0789 32.8084 60.4747 32.5375 60.6206 32.425C60.9164 32.2042 61.0706 32.1709 61.2081 32.3084ZM58.9997 24.975C58.0247 25.075 57.1081 25.2917 56.3747 25.5959C55.6331 25.9 55.2497 26.1417 54.7914 26.6C54.1747 27.2125 53.9581 27.7 53.9581 28.475C53.9581 29.1625 54.1622 29.7167 54.5789 30.1375C54.9789 30.5459 55.4331 30.725 56.0831 30.725C57.6081 30.725 58.6122 29.6959 58.4581 28.3042C58.3747 27.5542 58.0206 27 57.3622 26.5709C56.8872 26.2625 56.8914 26.0334 57.3664 25.8167C57.7997 25.6167 58.0997 25.5542 58.6914 25.5292C59.1164 25.5125 59.3122 25.5209 59.5497 25.575C60.3747 25.7584 60.8789 26.2167 61.1581 27.0334L61.2706 27.3709V29.1625C61.2706 30.9209 61.2706 30.9584 61.1789 31.1209C60.7956 31.8292 60.1664 32.1792 57.2914 33.2667C55.9206 33.7834 54.9497 34.325 54.3206 34.9292C53.7831 35.4417 53.5081 35.8792 53.3039 36.5459C53.2039 36.8792 53.1914 36.9709 53.1914 37.6C53.1956 38.1709 53.2081 38.3417 53.2831 38.6125C53.5914 39.7334 54.4747 40.5667 55.6706 40.8667C56.8331 41.1542 58.1206 41.0292 59.1956 40.5167C59.7706 40.2459 60.1872 39.95 60.6539 39.4875C61.0497 39.0917 61.1456 39.0417 61.3331 39.1417C61.3747 39.1625 61.4414 39.2792 61.4789 39.4C61.7372 40.1875 62.2581 40.6584 63.1456 40.9C63.4331 40.975 63.5914 40.9917 64.2706 40.9917C65.3247 40.9959 65.9956 40.8709 66.6789 40.5375C66.9997 40.3792 67.6247 39.975 67.6247 39.925C67.6247 39.9084 67.5622 39.7917 67.4872 39.6667L67.3497 39.4417L67.1872 39.5667C67.0956 39.6375 66.9081 39.7459 66.7706 39.8125C66.3539 40.0125 65.9122 39.9625 65.7747 39.6917C65.6081 39.3667 65.6122 39.4292 65.5831 33.975C65.5497 28.3209 65.5581 28.5167 65.3372 27.7042C64.9956 26.4667 63.9914 25.5542 62.5622 25.1875C61.9206 25.0209 61.4289 24.9709 60.3747 24.9542C59.8122 24.9459 59.1956 24.9542 58.9997 24.975Z" fill="#FA5959"/>
</g>
</g>
<defs>
<clipPath id="clip0_468_2757">
<rect width="80" height="45" fill="white" transform="translate(0 0.5)"/>
</clipPath>
</defs>
</svg>
