<svg width="64" height="64" viewBox="0 0 64 64" fill="none" xmlns="http://www.w3.org/2000/svg">
<path fill-rule="evenodd" clip-rule="evenodd" d="M28.4858 24.0451C22.545 19.1616 17.7311 13.346 14.1137 6.57032C13.3902 5.22076 11.7068 4.70597 10.3433 5.42944C8.99377 6.15292 8.4789 7.83643 9.20237 9.19991C13.1815 16.6156 18.4407 22.9878 24.952 28.3443C26.1346 29.3182 27.9015 29.1512 28.8754 27.9686C29.8494 26.7721 29.6684 25.019 28.4858 24.0451Z" fill="#FA5959"/>
<path fill-rule="evenodd" clip-rule="evenodd" d="M25.3176 5.02603C25.6237 10.6469 25.902 16.2678 26.2499 21.8886C26.3472 23.4191 27.669 24.5878 29.1994 24.4904C30.7298 24.393 31.8985 23.0712 31.8011 21.5408C31.4533 15.9338 31.175 10.3269 30.8689 4.70606C30.7854 3.1798 29.4637 2.00414 27.9333 2.0904C26.4028 2.17666 25.2202 3.49142 25.3176 5.02603Z" fill="#FA5959"/>
<path fill-rule="evenodd" clip-rule="evenodd" d="M45.9734 6.16699C42.4117 11.5374 38.377 16.4904 34.3144 21.4991C33.3405 22.6956 33.5213 24.4487 34.7178 25.4088C35.9143 26.3827 37.6674 26.2017 38.6274 25.0052C42.8013 19.8713 46.9474 14.7652 50.6205 9.24172C51.4692 7.96172 51.1073 6.23656 49.8273 5.38786C48.5612 4.53916 46.8221 4.88699 45.9734 6.16699Z" fill="#FA5959"/>
<path fill-rule="evenodd" clip-rule="evenodd" d="M59.77 26.1321C50.1143 26.5634 39.8604 26.5774 30.2047 25.9652C28.6743 25.8817 27.3526 27.0365 27.2552 28.5808C27.1578 30.1113 28.3265 31.433 29.8569 31.5304C39.7074 32.1426 50.17 32.1287 60.0205 31.6974C61.5509 31.6278 62.7473 30.32 62.6777 28.7896C62.6082 27.2591 61.3004 26.0626 59.77 26.1321Z" fill="#FA5959"/>
<path fill-rule="evenodd" clip-rule="evenodd" d="M24.9445 27.8989C30.8993 35.1894 37.0628 42.3407 42.5863 49.9651C43.4906 51.2033 45.2298 51.4815 46.482 50.5772C47.7203 49.6728 47.9984 47.9336 47.0941 46.6954C41.5011 38.9875 35.2681 31.7528 29.2437 24.3789C28.2698 23.1963 26.5167 23.0154 25.3341 23.9894C24.1376 24.9633 23.9706 26.7163 24.9445 27.8989Z" fill="#FA5959"/>
<path fill-rule="evenodd" clip-rule="evenodd" d="M26.7479 30.0143C28.3062 37.6109 28.7375 44.8735 28.8488 52.5674C28.8627 54.0979 30.1288 55.3222 31.6592 55.3083C33.2036 55.2804 34.4279 54.0282 34.4001 52.4839C34.2888 44.4282 33.8297 36.8457 32.2019 28.8874C31.8819 27.3848 30.421 26.4108 28.9045 26.7308C27.4019 27.0369 26.4279 28.5117 26.7479 30.0143Z" fill="#FA5959"/>
<path fill-rule="evenodd" clip-rule="evenodd" d="M26.9991 29.4025C22.4913 38.4181 20.1678 48.4355 15.34 57.2564C14.6026 58.592 15.1033 60.2894 16.4529 61.0268C17.8025 61.7642 19.4861 61.2632 20.2235 59.9276C25.0791 51.0511 27.4303 40.9781 31.9799 31.8929C32.6616 30.5155 32.1051 28.8459 30.7416 28.1502C29.3642 27.4685 27.6947 28.0251 26.9991 29.4025Z" fill="#FA5959"/>
<path fill-rule="evenodd" clip-rule="evenodd" d="M29.48 27.3565C20.5061 28.9426 11.546 29.666 2.51648 30.7373C0.986048 30.9182 -0.0991689 32.2956 0.0817006 33.8261C0.26257 35.3565 1.64009 36.4417 3.17053 36.2608C12.2975 35.1895 21.3688 34.4382 30.454 32.8382C31.9566 32.5599 32.9722 31.113 32.7079 29.6104C32.4296 28.0939 30.9965 27.0782 29.48 27.3565Z" fill="#FA5959"/>
<path fill-rule="evenodd" clip-rule="evenodd" d="M35.7241 23.1277C33.8737 23.0442 32.1206 22.9189 30.3119 22.6546C28.7815 22.432 27.3762 23.4894 27.1536 25.0059C26.931 26.5224 27.9883 27.9416 29.5048 28.1642C31.5083 28.4564 33.4423 28.5955 35.4736 28.679C37.004 28.7485 38.3118 27.5659 38.3674 26.0215C38.437 24.4911 37.2545 23.1972 35.7241 23.1277Z" fill="#FA5959"/>
</svg>
