<svg width="87" height="87" viewBox="0 0 87 87" fill="none" xmlns="http://www.w3.org/2000/svg">
<g clip-path="url(#clip0_305_1352)">
<path fill-rule="evenodd" clip-rule="evenodd" d="M57.1855 36.7141C63.6111 42.809 69.3187 50.3152 71.4789 58.8982C72.2652 62.0211 72.3065 65.1357 72.3774 68.324C72.3827 68.5475 72.2047 68.734 71.9802 68.7396C71.7552 68.7443 71.5688 68.5663 71.5642 68.3414C71.4942 65.2147 71.461 62.1594 70.6899 59.0969C68.5604 50.6357 62.9099 43.2494 56.5697 37.2506L56.4696 37.3407C55.3849 38.3218 53.4172 38.5748 51.1704 38.2824C47.9498 37.8638 44.1482 36.3685 41.7682 34.6833C40.6989 33.9258 39.9141 33.1218 39.5577 32.3639C39.2794 31.7732 39.2456 31.1996 39.481 30.6711C39.9835 29.5453 41.3344 29.1386 43.1139 29.3209C46.8357 29.7011 52.4979 32.5362 54.6198 34.3832C55.2822 34.9602 55.9414 35.5518 56.5931 36.1582C56.7886 35.9908 56.9793 35.8261 57.1575 35.6576C57.6639 35.1759 58.0737 34.6537 58.2124 33.8594C58.427 32.6213 58.1111 31.3242 57.5442 30.0762C56.6581 28.1292 55.1541 26.3048 53.9462 24.9944C47.2186 17.697 39.0165 15.671 31.4304 15.6238C23.7691 15.5775 16.727 17.5405 12.4088 18.195C12.1867 18.2291 11.9801 18.0757 11.946 17.8537C11.9119 17.6316 12.065 17.424 12.2874 17.3909C16.6334 16.7318 23.7233 14.7634 31.4357 14.8111C39.2233 14.8579 47.638 16.9519 54.5445 24.4423C55.8029 25.8072 57.3622 27.7115 58.2847 29.739C58.9227 31.1429 59.2555 32.6057 59.0138 33.9991C58.7963 35.2494 58.0527 35.9604 57.1855 36.7141ZM55.9733 36.6926L55.9238 36.738C54.9757 37.5957 53.2402 37.7314 51.2756 37.4754C48.1808 37.0732 44.5265 35.6391 42.2386 34.0185C41.4538 33.4634 40.8331 32.8897 40.4669 32.3265C40.1655 31.8616 40.0407 31.4134 40.2246 31.0031C40.3965 30.6148 40.7293 30.3745 41.1636 30.2385C41.6734 30.0779 42.3119 30.0566 43.0307 30.1298C46.607 30.4955 52.0468 33.2217 54.0854 34.9968C54.7182 35.5485 55.3485 36.1135 55.9733 36.6926Z" fill="#FA5959"/>
<path fill-rule="evenodd" clip-rule="evenodd" d="M71.5003 69.6961C71.6553 69.6084 71.8272 69.4273 72.0097 69.2304C72.4449 68.7618 72.8738 68.1567 73.0876 67.8797C73.2256 67.7018 73.4812 67.6703 73.6588 67.8072C73.8367 67.9452 73.8692 68.2004 73.7312 68.3784C73.4689 68.7173 72.8957 69.5227 72.3675 70.0272C72.084 70.2976 71.8007 70.4824 71.5717 70.5368C71.182 70.6301 70.8468 70.4071 70.6668 69.8068C70.4544 69.0966 70.381 67.673 69.5992 66.716C69.4571 66.5426 69.4835 66.2851 69.6571 66.144C69.8315 66.0015 70.0877 66.0273 70.2301 66.2016C70.975 67.1144 71.1776 68.3955 71.3634 69.2417C71.3989 69.4025 71.4614 69.5871 71.5003 69.6961Z" fill="#FA5959"/>
</g>
<defs>
<clipPath id="clip0_305_1352">
<rect width="69" height="69" fill="white" transform="matrix(0.310024 0.950729 0.950729 -0.310024 0 21.3916)"/>
</clipPath>
</defs>
</svg>
