<svg width="20" height="24" viewBox="0 0 20 24" fill="none" xmlns="http://www.w3.org/2000/svg">
<path fill-rule="evenodd" clip-rule="evenodd" d="M6.49984 4.5C6.49984 2.567 8.06684 1 9.99984 1C11.9328 1 13.4998 2.567 13.4998 4.5V5.33333H6.49984V4.5ZM5.49984 6.33333V8.5C5.49984 8.77614 5.7237 9 5.99984 9C6.27598 9 6.49984 8.77614 6.49984 8.5V6.33333H13.4998V8.5C13.4998 8.77614 13.7237 9 13.9998 9C14.276 9 14.4998 8.77614 14.4998 8.5V6.33333H17.5368L18.7932 22.6667H1.20644L2.46285 6.33333H5.49984ZM5.49984 5.33333V4.5C5.49984 2.01472 7.51456 0 9.99984 0C12.4851 0 14.4998 2.01472 14.4998 4.5V5.33333H17.9998C18.2611 5.33333 18.4783 5.53449 18.4984 5.79498L19.8317 23.1283C19.8424 23.2672 19.7947 23.4042 19.7 23.5064C19.6054 23.6086 19.4724 23.6667 19.3332 23.6667H0.666505C0.527233 23.6667 0.394272 23.6086 0.299644 23.5064C0.205016 23.4042 0.157296 23.2672 0.167978 23.1283L1.50131 5.79498C1.52135 5.53449 1.73857 5.33333 1.99984 5.33333H5.49984Z" fill="black"/>
</svg>
