<svg width="24" height="24" viewBox="0 0 24 24" fill="none" xmlns="http://www.w3.org/2000/svg">
<path d="M19.0234 9.17659C19.1361 9.28894 19.1995 9.44144 19.1997 9.60054C19.1999 9.75963 19.137 9.91231 19.0246 10.025L12.4678 16.6058C12.4065 16.6673 12.3337 16.7161 12.2535 16.7494C12.1733 16.7827 12.0873 16.7998 12.0004 16.7998C11.9136 16.7998 11.8276 16.7827 11.7474 16.7494C11.6672 16.7161 11.5943 16.6673 11.533 16.6058L4.97503 10.025C4.86589 9.91167 4.80562 9.76002 4.8072 9.6027C4.80879 9.44538 4.8721 9.29497 4.98351 9.18388C5.09492 9.07279 5.2455 9.0099 5.40282 9.00876C5.56015 9.00762 5.71163 9.06832 5.82463 9.17778L11.9998 15.3746L18.175 9.17778C18.2874 9.06514 18.4399 9.00174 18.599 9.00151C18.7581 9.00129 18.9108 9.06426 19.0234 9.17659Z" fill="#D2D1D2"/>
</svg>
