<svg width="34" height="34" viewBox="0 0 34 34" fill="none" xmlns="http://www.w3.org/2000/svg">
<path d="M23.1286 22.1854L17.9431 17L23.1286 11.8145C23.2536 11.6895 23.3238 11.5199 23.3238 11.3431C23.3238 11.1663 23.2536 10.9968 23.1286 10.8717C23.0035 10.7467 22.834 10.6765 22.6572 10.6765C22.4804 10.6765 22.3108 10.7467 22.1858 10.8717L17.0003 16.0572L11.8149 10.8717C11.6898 10.7467 11.5203 10.6765 11.3435 10.6765C11.1666 10.6765 10.9971 10.7467 10.8721 10.8717C10.8085 10.9307 10.7582 11.0026 10.7248 11.0825C10.6913 11.1625 10.6754 11.2488 10.6781 11.3354C10.6807 11.4221 10.702 11.5072 10.7403 11.5849C10.7787 11.6627 10.8332 11.7314 10.9003 11.7863L16.0858 16.9717L10.8721 22.1854C10.747 22.3105 10.6768 22.48 10.6768 22.6568C10.6768 22.8337 10.747 23.0032 10.8721 23.1282C10.9971 23.2533 11.1666 23.3235 11.3435 23.3235C11.5203 23.3235 11.6898 23.2533 11.8149 23.1282L17.0003 17.9428L22.1858 23.1283C22.3108 23.2533 22.4804 23.3235 22.6572 23.3235C22.834 23.3235 23.0035 23.2533 23.1286 23.1283C23.2536 23.0032 23.3238 22.8337 23.3238 22.6568C23.3238 22.48 23.2536 22.3105 23.1286 22.1854Z" fill="#1C1B1F"/>
</svg>
