<svg width="75" height="75" viewBox="0 0 75 75" fill="none" xmlns="http://www.w3.org/2000/svg">
<path fill-rule="evenodd" clip-rule="evenodd" d="M71.0089 23.6016C56.9324 49.7766 28.8131 60.4181 2.69646 45.6823C1.82703 45.1916 0.724491 45.4984 0.233807 46.357C-0.256877 47.2311 0.0498333 48.3351 0.919265 48.8258C28.9128 64.635 59.1037 53.3647 74.1922 25.319C74.6645 24.445 74.3348 23.3408 73.4562 22.8654C72.5776 22.4054 71.4812 22.7276 71.0089 23.6016Z" fill="#FA5959"/>
<path d="M24.6746 34.4565C27.5823 34.4565 29.9395 32.0994 29.9395 29.1917C29.9395 26.2839 27.5823 23.9268 24.6746 23.9268C21.7668 23.9268 19.4097 26.2839 19.4097 29.1917C19.4097 32.0994 21.7668 34.4565 24.6746 34.4565Z" fill="#FA5959"/>
<path d="M46.4701 28.8562C49.321 28.8562 51.6322 26.5451 51.6322 23.6942C51.6322 20.8433 49.321 18.5322 46.4701 18.5322C43.6192 18.5322 41.3081 20.8433 41.3081 23.6942C41.3081 26.5451 43.6192 28.8562 46.4701 28.8562Z" fill="#FA5959"/>
</svg>
