<svg width="134" height="12" viewBox="0 0 134 12" fill="none" xmlns="http://www.w3.org/2000/svg">
<path fill-rule="evenodd" clip-rule="evenodd" d="M80.1948 5.48088C62.3618 5.69401 44.52 6.53952 26.7646 8.05082C18.3232 8.76949 8.52015 8.67965 0.332992 11.1298C-0.074953 11.2531 0.00273866 11.623 0.0115686 11.66C0.0292286 11.7357 0.103419 11.9876 0.428362 11.9999C0.463682 12.0017 0.71267 11.9665 0.808034 11.9541C3.22568 11.6371 5.6345 11.2672 8.05392 10.9678C16.4071 9.93028 24.785 9.14644 33.1752 8.45949C44.3116 7.54707 55.5433 7.06089 66.7097 6.68042C72.8218 6.47258 79.0805 6.74911 85.212 6.31932C87.4637 6.30699 89.7153 6.30527 91.9669 6.31231C101.38 6.34578 110.782 6.70159 120.179 7.1895C123.2 7.34627 125.505 7.51537 128.463 7.62986C129.586 7.6739 131.368 7.70385 132.608 7.72322C132.79 7.72674 133.254 7.73023 133.447 7.73199C133.466 7.73552 133.485 7.73552 133.507 7.73552C133.581 7.73552 133.616 7.73023 133.623 7.73023C134.044 7.66858 134.005 7.27227 133.994 7.21238C133.992 7.20005 133.929 6.86537 133.567 6.85304C133.48 6.84952 132.86 6.84603 132.622 6.84251C131.389 6.82313 129.614 6.79318 128.497 6.75091C125.544 6.63641 123.241 6.46732 120.225 6.31055C110.814 5.82263 101.397 5.46507 91.9705 5.4316C90.8191 5.42808 89.6659 5.42631 88.5144 5.42807C88.4756 5.32767 88.3891 5.21494 88.1983 5.16562C88.02 5.11982 86.7431 5.07932 86.2504 5.0388C82.6036 4.73936 82.7114 4.75345 78.699 4.50861C72.6222 4.13695 71.6968 4.05236 65.3764 3.89559C53.8956 3.61024 42.4096 3.63317 30.9271 3.66135C25.2582 3.6772 19.1885 4.05943 13.4331 3.34605C15.3298 3.12411 17.2336 2.96206 19.1338 2.77711C25.622 2.14652 32.1156 1.75546 38.6304 1.48068C54.2577 0.821904 69.9097 0.559471 85.5317 1.4578C82.2063 1.48951 78.8827 1.56346 75.5573 1.61102C62.021 1.8083 48.3539 1.66036 34.8458 2.68375C34.6039 2.70313 34.422 2.91448 34.4397 3.1558C34.4573 3.39888 34.671 3.58032 34.9129 3.5627C48.4034 2.53931 62.051 2.68902 75.5697 2.49174C80.5922 2.41952 85.6129 2.28919 90.6354 2.32794C92.359 2.34203 94.0826 2.40545 95.8062 2.42659C96.1471 2.43187 97.0248 2.49881 97.1502 2.47062C97.4274 2.40897 97.4874 2.20463 97.5051 2.10423C97.5139 2.04434 97.5422 1.6991 97.1183 1.5758C94.2256 0.733839 88.8871 0.772591 86.0756 0.607016C70.2611 -0.326542 54.4148 -0.0658569 38.5933 0.599964C32.0626 0.876508 25.5532 1.26933 19.0472 1.90168C16.7744 2.12186 14.4963 2.3121 12.2323 2.60449C11.8667 2.65205 11.0455 2.72076 10.6482 2.79298C10.4822 2.82292 10.3621 2.86517 10.3091 2.89511C10.1025 3.01137 10.0654 3.18047 10.0654 3.29496C10.0636 3.38303 10.1007 3.69304 10.5334 3.77759C17.1258 5.0652 24.2993 4.55968 30.9289 4.54207C42.4043 4.51388 53.8815 4.49096 65.3552 4.77631C71.6598 4.93308 72.5816 5.0159 78.646 5.38756C79.2447 5.42279 79.7516 5.45446 80.1948 5.48088Z" fill="#FA5959"/>
</svg>
