<svg width="81" height="81" viewBox="0 0 81 81" fill="none" xmlns="http://www.w3.org/2000/svg">
<g clip-path="url(#clip0_299_1512)">
<path fill-rule="evenodd" clip-rule="evenodd" d="M45.785 47.4683C46.6796 48.8328 48.0288 49.8208 49.9243 50.2179C55.7878 51.446 59.9624 48.5727 62.7565 44.0143C66.8363 37.3582 67.9241 27.0635 67.1014 21.2177C67.0627 20.9408 66.8064 20.7487 66.5306 20.788C66.2537 20.8266 66.0605 21.0823 66.0992 21.3592C66.8981 27.033 65.8528 37.0262 61.8938 43.4863C59.3281 47.6717 55.5169 50.3557 50.1314 49.227C48.5284 48.8922 47.3926 48.0546 46.6333 46.9029C47.3783 46.3951 48.0991 45.8729 48.794 45.3369C50.712 43.8568 54.9147 39.1469 56.5539 34.9075C57.7289 31.8661 57.5871 29.0699 54.7647 27.6559C53.1957 26.8703 51.5614 27.2355 50.057 28.4026C47.9877 30.0059 46.1552 33.1778 45.1637 36.6258C44.3378 39.4963 44.0932 42.5519 44.7371 45.0346C44.8798 45.5799 45.0626 46.099 45.2914 46.5833C34.8253 53.4299 20.1575 57.2214 8.02368 55.6393C7.74708 55.6043 7.49276 55.7983 7.45714 56.076C7.42039 56.3531 7.61617 56.607 7.89217 56.6431C20.2241 58.2501 35.1255 54.4141 45.785 47.4683ZM46.1461 46.0111C46.8452 45.5323 47.5223 45.0403 48.1758 44.5357C50.0133 43.1168 54.0393 38.6049 55.6096 34.5429C56.5737 32.0502 56.6246 29.7191 54.3114 28.5601C53.0963 27.9522 51.8423 28.2992 50.6764 29.2015C49.3949 30.1954 48.2261 31.8446 47.3111 33.7801C45.9219 36.7186 45.1215 40.318 45.458 43.3484C45.5641 44.3086 45.7866 45.2108 46.1461 46.0111Z" fill="#FA5959"/>
<path fill-rule="evenodd" clip-rule="evenodd" d="M23.8088 45.3025C20.1048 50.0677 13.6885 53.8194 7.9242 55.7107C7.6591 55.7976 7.51472 56.0838 7.60166 56.3489C7.6886 56.614 7.97418 56.7595 8.23928 56.6725C14.184 54.7229 20.7885 50.8358 24.6072 45.9236C24.7783 45.7038 24.7385 45.3858 24.5176 45.2141C24.2979 45.043 23.9799 45.0828 23.8088 45.3025Z" fill="#FA5959"/>
<path fill-rule="evenodd" clip-rule="evenodd" d="M8.24636 56.7975C13.2692 56.6581 19.3337 59.5108 23.0406 62.9252C23.2461 63.1148 23.5669 63.1025 23.7553 62.8963C23.9448 62.6908 23.9319 62.3712 23.7264 62.1817C19.8429 58.6048 13.4805 55.6405 8.21823 55.7865C7.93933 55.7936 7.71867 56.0274 7.72585 56.3063C7.73415 56.5858 7.96685 56.8058 8.24636 56.7975Z" fill="#FA5959"/>
</g>
<defs>
<clipPath id="clip0_299_1512">
<rect width="59.4952" height="59.4952" fill="white" transform="translate(52.4629 80.5225) rotate(-151.86)"/>
</clipPath>
</defs>
</svg>
