<svg width="80" height="45" viewBox="0 0 80 45" fill="none" xmlns="http://www.w3.org/2000/svg">
<mask id="mask0_468_2190" style="mask-type:luminance" maskUnits="userSpaceOnUse" x="0" y="0" width="80" height="45">
<path d="M0 0H80V45H0V0Z" fill="white"/>
</mask>
<g mask="url(#mask0_468_2190)">
<path fill-rule="evenodd" clip-rule="evenodd" d="M41.3123 2.93711C40.7957 3.01211 40.2082 3.39544 39.9165 3.84544C39.6332 4.29128 39.5248 4.87461 39.6415 5.36628C39.7832 5.96211 39.8165 6.00378 41.8082 8.00794L43.6457 9.84961L45.4873 8.00794C47.4373 6.05794 47.4915 5.99544 47.6457 5.45794C47.7957 4.94961 47.679 4.27044 47.3707 3.82461C46.9707 3.24128 46.3873 2.93294 45.6832 2.93294C45.0332 2.93294 44.6582 3.11211 44.0248 3.72461L43.6415 4.09544L43.2498 3.70378C42.604 3.05794 42.0373 2.83294 41.3123 2.93711Z" fill="#FA5959"/>
<path fill-rule="evenodd" clip-rule="evenodd" d="M37.6663 6.58763C37.4872 6.61679 37.0705 6.77513 36.908 6.87513C36.3122 7.25429 35.958 7.89179 35.958 8.60013C35.958 9.22929 36.1872 9.69596 36.783 10.2835L37.1205 10.6168L36.733 11.021C36.1413 11.6376 35.958 12.0251 35.958 12.6668C35.958 13.271 36.1622 13.7293 36.6205 14.1501C37.2663 14.7501 38.1538 14.8543 38.958 14.4293C39.1372 14.3335 39.608 13.8876 41.033 12.4626L42.8747 10.621L41.033 8.77929C39.4455 7.20013 39.1497 6.92513 38.9288 6.81263C38.5122 6.60429 38.058 6.52513 37.6663 6.58763Z" fill="#FA5959"/>
<path fill-rule="evenodd" clip-rule="evenodd" d="M48.8292 6.63359C48.6792 6.67109 48.45 6.77109 48.325 6.84609C48.1667 6.94193 47.4792 7.60026 46.2625 8.81693L44.4375 10.6419L46.2917 12.4878C47.9458 14.1336 48.175 14.3503 48.4167 14.4628C48.7583 14.6294 48.9833 14.6794 49.3583 14.6836C49.8792 14.6836 50.4625 14.4336 50.8208 14.0544C51.2833 13.5628 51.4792 12.8044 51.3125 12.1628C51.2083 11.7753 51.05 11.5253 50.6083 11.0711L50.1958 10.6461L50.5958 10.2253C51.1958 9.59193 51.4125 9.09609 51.3625 8.45443C51.3 7.65443 50.7792 6.97109 50.0125 6.68359C49.6792 6.55859 49.1792 6.53776 48.8292 6.63359Z" fill="#FA5959"/>
<path fill-rule="evenodd" clip-rule="evenodd" d="M41.7833 13.2958C39.7166 15.3708 39.7208 15.3666 39.6166 16.0291C39.4166 17.3333 40.5875 18.5083 41.9 18.3208C42.3875 18.2499 42.7416 18.0541 43.2458 17.5749L43.6666 17.1749L44.1 17.5916C44.5666 18.0374 44.8583 18.2166 45.2833 18.3041C46.3125 18.5208 47.3333 17.8916 47.6416 16.8541C47.7833 16.3749 47.7 15.7374 47.4375 15.2791C47.3666 15.1541 46.6291 14.3833 45.5041 13.2541C44.5083 12.2541 43.6791 11.4333 43.6666 11.4333C43.6541 11.4333 42.8083 12.2708 41.7833 13.2958Z" fill="#FA5959"/>
<path fill-rule="evenodd" clip-rule="evenodd" d="M25.5665 15.2708C24.679 15.3916 23.8582 15.6291 23.129 15.9791C20.8248 17.0749 19.8748 18.9999 19.6665 22.9958C19.6123 23.9874 19.5748 24.1166 19.2332 24.4583C18.8873 24.7999 18.7373 24.8499 17.9915 24.8499H17.4165V25.1374V25.4249L18.0123 25.4416C18.4998 25.4541 18.6373 25.4749 18.7998 25.5458C19.0748 25.6708 19.354 25.9416 19.4873 26.2208L19.604 26.4541V32.3291C19.604 37.9166 19.5998 38.2166 19.529 38.4541C19.3748 38.9541 19.1665 39.2208 18.7998 39.3958C18.5748 39.4999 18.079 39.5958 17.7623 39.5999H17.5415V39.8999V40.2041L18.279 40.1708C19.2957 40.1208 23.6373 40.1124 25.0748 40.1583L26.2498 40.1916V39.9041V39.6124L25.8623 39.5833C24.7665 39.5083 24.2123 39.1208 23.9707 38.2666C23.8998 38.0083 23.8957 37.6958 23.8957 32.2458V26.4958L24.004 26.2666C24.1582 25.9333 24.3415 25.7458 24.6582 25.5916L24.9332 25.4541L25.9873 25.4416L27.0415 25.4249V25.1374V24.8499H25.9998C25.054 24.8499 24.9415 24.8416 24.7332 24.7624C24.4415 24.6541 24.154 24.3791 24.0082 24.0666L23.8957 23.8291L23.8832 22.4749C23.8665 20.9374 23.929 19.2874 24.0248 18.6458C24.1665 17.6916 24.4248 17.1374 24.979 16.5749C25.5457 15.9999 26.0165 15.7916 26.8623 15.7374C27.5873 15.6958 28.2082 15.8416 28.8457 16.2124C29.0207 16.3166 29.1665 16.4041 29.1665 16.4124C29.1665 16.4208 29.0123 16.5083 28.8248 16.6083C27.8207 17.1291 27.3207 18.1541 27.5457 19.2333C27.7498 20.2249 28.679 20.8916 29.854 20.8916C30.4998 20.8916 30.9832 20.7083 31.379 20.3124C32.0623 19.6291 32.2248 18.4583 31.7665 17.5333C31.5665 17.1291 31.1082 16.6374 30.6457 16.3291C29.9832 15.8874 28.9582 15.4708 28.1873 15.3249C27.7457 15.2416 26.029 15.2083 25.5665 15.2708Z" fill="#FA5959"/>
<path fill-rule="evenodd" clip-rule="evenodd" d="M33.679 18.3828L33.4665 18.3953L33.4373 18.6953C33.2998 20.2412 32.7373 21.212 31.6707 21.7453C31.2415 21.962 30.8165 22.062 30.1998 22.087L29.6665 22.112V30.0537C29.6623 38.5745 29.6665 38.3745 29.454 38.8287C29.3373 39.0703 29.1207 39.3037 28.904 39.4037C28.704 39.4995 28.2415 39.5995 27.9915 39.5995H27.7915V39.8995V40.2037L28.4248 40.1787C30.0748 40.1078 32.679 40.087 34.229 40.137C35.1248 40.1662 35.8957 40.1953 35.9498 40.2078C36.0373 40.2245 36.0415 40.2162 36.0415 39.9203V39.612L35.654 39.587C34.704 39.5245 34.2207 39.1745 34.0123 38.3953C33.9457 38.137 33.9373 37.5162 33.9165 28.2453L33.8957 18.3703L33.679 18.3828Z" fill="#FA5959"/>
<path fill-rule="evenodd" clip-rule="evenodd" d="M73.7205 18.379L73.4997 18.3956V18.5581C73.4997 18.6456 73.4788 18.8623 73.4538 19.0373C73.333 19.9081 73.0497 20.5706 72.583 21.0706C71.9622 21.7331 71.1955 22.0498 70.158 22.0706L69.708 22.079V23.4831V24.8915H68.458H67.208V25.1831V25.4748H68.458H69.7038L69.7205 31.2748C69.733 36.4956 69.7413 37.1248 69.8038 37.5165C69.908 38.1456 70.0205 38.5248 70.2372 38.9748C70.3997 39.3123 70.483 39.4248 70.808 39.7456C71.1122 40.0498 71.258 40.1581 71.5413 40.2998C72.2413 40.6456 73.0663 40.7956 73.9997 40.754C75.4913 40.6831 76.633 39.9956 77.3788 38.7165C77.5497 38.429 77.833 37.8123 77.833 37.7373C77.833 37.7081 77.4538 37.4748 77.4038 37.4748C77.3913 37.4748 77.283 37.654 77.1622 37.8748C76.7913 38.5415 76.308 38.9956 75.7955 39.1623C75.4705 39.2665 74.9122 39.2373 74.6413 39.0956C74.3997 38.9706 74.1955 38.7206 74.0955 38.4206C74.0247 38.2165 74.0205 37.8123 74.008 31.8956C73.9997 27.2165 74.0122 25.5748 74.0455 25.5331C74.083 25.4831 74.4038 25.4748 75.8163 25.4748H77.5413V25.1831V24.8915H75.7705H73.9997V21.6206C73.9997 19.8206 73.9872 18.354 73.9705 18.3581C73.9497 18.3623 73.8372 18.3706 73.7205 18.379Z" fill="#FA5959"/>
<path fill-rule="evenodd" clip-rule="evenodd" d="M10.229 31.8292L10.3332 31.9292V34.65C10.3332 37.2292 10.329 37.3792 10.254 37.4959C10.0207 37.875 9.47901 38.3292 9.07901 38.4792C8.57901 38.6709 7.91651 38.6625 7.47068 38.4542C7.02068 38.25 6.67484 37.8042 6.51651 37.225C6.39984 36.8125 6.41234 35.7 6.53318 35.2459C6.83318 34.1417 7.55818 33.275 8.87068 32.45C9.08734 32.3167 9.40818 32.0959 9.57901 31.9625C9.93318 31.6917 10.0665 31.6667 10.229 31.8292ZM7.99984 24.4792C7.34151 24.5417 6.49151 24.7125 5.90818 24.9084C4.05401 25.5167 3.04151 26.5209 2.97068 27.8125C2.90818 28.9417 3.47901 29.8584 4.43318 30.15C4.67901 30.225 4.78734 30.2334 5.22484 30.2125C5.96234 30.1792 6.40818 30.0084 6.85818 29.5917C7.39984 29.0834 7.59984 28.3792 7.43318 27.5667C7.30818 26.9459 6.88734 26.3542 6.36234 26.0584C6.09984 25.9125 6.04151 25.8375 6.04151 25.6459C6.04151 25.4917 6.15818 25.3959 6.51651 25.2542C6.95818 25.075 7.44568 25.0042 8.04151 25.0292C8.81234 25.0625 9.27901 25.25 9.68318 25.6875C9.94568 25.9709 10.0873 26.2417 10.2165 26.7042C10.304 27.0209 10.3082 27.1167 10.3082 28.7042L10.3123 30.3709L10.1915 30.6125C9.86651 31.25 9.10401 31.7084 7.11234 32.4584C5.33318 33.1292 4.77901 33.3834 4.08318 33.8417C3.08734 34.5 2.54151 35.2042 2.28734 36.1625C2.15818 36.65 2.15818 37.5209 2.28318 38.0375C2.65401 39.5167 3.89151 40.4209 5.67068 40.5042C7.22484 40.575 8.57068 40.0709 9.64151 39.0084C9.96234 38.6875 10.0748 38.6 10.1665 38.6C10.3332 38.6 10.4332 38.7125 10.5415 39.0167C10.7915 39.7292 11.2957 40.1625 12.154 40.4C12.4332 40.4792 12.5915 40.4917 13.3123 40.4917C13.9457 40.4917 14.2332 40.475 14.5123 40.4209C14.8957 40.3417 15.4873 40.15 15.7707 40.0084C16.0332 39.875 16.6248 39.475 16.6248 39.425C16.6248 39.4042 16.5665 39.2834 16.4915 39.1625L16.3582 38.9417L16.1748 39.0792C15.6373 39.4917 14.9707 39.5542 14.7957 39.2125C14.6457 38.9084 14.6457 38.9875 14.6207 33.7042C14.5957 28.1584 14.5957 28.1459 14.3748 27.2875C14.2707 26.8792 13.979 26.2709 13.7623 26.0125C13.004 25.1084 11.929 24.6292 10.2998 24.475C9.77901 24.425 8.56651 24.4292 7.99984 24.4792Z" fill="#FA5959"/>
<path fill-rule="evenodd" clip-rule="evenodd" d="M45.1457 25.1624C46.5999 25.8665 47.3166 28.6123 47.2374 33.1415C47.1916 35.7832 46.9041 37.4915 46.3082 38.6957C45.9916 39.3373 45.5999 39.7748 45.1332 40.004C44.9166 40.1123 44.8541 40.1207 44.4374 40.1207C44.0124 40.1207 43.9624 40.1123 43.7082 39.9915C43.3457 39.8165 43.0916 39.5832 42.8082 39.1623C42.1957 38.2373 41.8291 36.7582 41.6666 34.5582C41.6457 34.2498 41.6249 33.3582 41.6249 32.579C41.6249 31.7998 41.6457 30.9082 41.6666 30.5998C41.8249 28.4665 42.1874 26.954 42.7624 26.0665C43.1041 25.5415 43.3582 25.3082 43.8207 25.1165C44.0332 25.0249 44.1124 25.0165 44.4791 25.0248C44.8416 25.0373 44.9291 25.054 45.1457 25.1624ZM43.1457 24.4957C40.1457 24.8624 38.2166 26.5332 37.4791 29.4082C37.1957 30.5082 37.1499 30.9832 37.1499 32.5998C37.1499 33.8832 37.1582 34.104 37.2416 34.6332C37.7874 38.1207 39.5499 40.0415 42.7082 40.5998C43.4416 40.729 44.8332 40.7623 45.6499 40.6665C47.0041 40.5082 48.1624 40.0915 49.0791 39.4248C49.4416 39.1582 50.1207 38.4457 50.3791 38.0582C51.0332 37.0748 51.4416 35.8998 51.6541 34.3915C51.7582 33.6498 51.7582 31.5498 51.6541 30.8082C51.4999 29.7082 51.2374 28.7582 50.8791 27.9915C49.9207 25.954 48.0624 24.7332 45.5041 24.4749C44.9291 24.4165 43.7124 24.429 43.1457 24.4957Z" fill="#FA5959"/>
<path fill-rule="evenodd" clip-rule="evenodd" d="M61.2081 31.8079C61.2914 31.8912 61.2914 31.9454 61.2914 34.6704V37.4537L61.0872 37.6912C60.4747 38.4079 59.7456 38.7204 58.9872 38.5996C58.2414 38.4829 57.8206 38.1246 57.5497 37.3871C57.4414 37.0912 57.4372 37.0454 57.4372 36.2871C57.4414 35.5412 57.4497 35.4746 57.5581 35.1204C57.8622 34.1162 58.5372 33.3204 59.7414 32.5287C60.0789 32.3079 60.4747 32.0371 60.6206 31.9246C60.9164 31.7037 61.0706 31.6704 61.2081 31.8079ZM58.9997 24.4746C58.0247 24.5746 57.1081 24.7912 56.3747 25.0954C55.6331 25.3996 55.2497 25.6412 54.7914 26.0996C54.1747 26.7121 53.9581 27.1996 53.9581 27.9746C53.9581 28.6621 54.1622 29.2162 54.5789 29.6371C54.9789 30.0454 55.4331 30.2246 56.0831 30.2246C57.6081 30.2246 58.6122 29.1954 58.4581 27.8037C58.3747 27.0537 58.0206 26.4996 57.3622 26.0704C56.8872 25.7621 56.8914 25.5329 57.3664 25.3162C57.7997 25.1162 58.0997 25.0537 58.6914 25.0287C59.1164 25.0121 59.3122 25.0204 59.5497 25.0746C60.3747 25.2579 60.8789 25.7162 61.1581 26.5329L61.2706 26.8704V28.6621C61.2706 30.4204 61.2706 30.4579 61.1789 30.6204C60.7956 31.3287 60.1664 31.6787 57.2914 32.7662C55.9206 33.2829 54.9497 33.8246 54.3206 34.4287C53.7831 34.9412 53.5081 35.3787 53.3039 36.0454C53.2039 36.3787 53.1914 36.4704 53.1914 37.0996C53.1956 37.6704 53.2081 37.8412 53.2831 38.1121C53.5914 39.2329 54.4747 40.0662 55.6706 40.3662C56.8331 40.6537 58.1206 40.5287 59.1956 40.0162C59.7706 39.7454 60.1872 39.4496 60.6539 38.9871C61.0497 38.5912 61.1456 38.5412 61.3331 38.6412C61.3747 38.6621 61.4414 38.7787 61.4789 38.8996C61.7372 39.6871 62.2581 40.1579 63.1456 40.3996C63.4331 40.4746 63.5914 40.4912 64.2706 40.4912C65.3247 40.4954 65.9956 40.3704 66.6789 40.0371C66.9997 39.8787 67.6247 39.4746 67.6247 39.4246C67.6247 39.4079 67.5622 39.2912 67.4872 39.1662L67.3497 38.9412L67.1872 39.0662C67.0956 39.1371 66.9081 39.2454 66.7706 39.3121C66.3539 39.5121 65.9122 39.4621 65.7747 39.1912C65.6081 38.8662 65.6122 38.9287 65.5831 33.4746C65.5497 27.8204 65.5581 28.0162 65.3372 27.2037C64.9956 25.9662 63.9914 25.0537 62.5622 24.6871C61.9206 24.5204 61.4289 24.4704 60.3747 24.4537C59.8122 24.4454 59.1956 24.4537 58.9997 24.4746Z" fill="#FA5959"/>
</g>
</svg>
