<svg width="33" height="33" viewBox="0 0 33 33" fill="none" xmlns="http://www.w3.org/2000/svg">
<path fill-rule="evenodd" clip-rule="evenodd" d="M28.02 16.7729C28.02 15.922 27.9436 15.1038 27.8018 14.3184H16.5V18.9602H22.9582C22.68 20.4602 21.8345 21.7311 20.5636 22.582V25.5929H24.4418C26.7109 23.5038 28.02 20.4274 28.02 16.7729Z" fill="#4285F4"/>
<path fill-rule="evenodd" clip-rule="evenodd" d="M16.5007 28.5003C19.7407 28.5003 22.4571 27.4257 24.4426 25.593L20.5644 22.5821C19.4898 23.3021 18.1153 23.7275 16.5007 23.7275C13.3753 23.7275 10.7298 21.6166 9.78619 18.7803H5.7771V21.8894C7.75165 25.8112 11.8098 28.5003 16.5007 28.5003Z" fill="#34A853"/>
<path fill-rule="evenodd" clip-rule="evenodd" d="M9.78546 18.7804C9.54545 18.0604 9.40909 17.2913 9.40909 16.5004C9.40909 15.7095 9.54545 14.9404 9.78546 14.2204V11.1113H5.77636C4.96364 12.7313 4.5 14.5641 4.5 16.5004C4.5 18.4368 4.96364 20.2695 5.77636 21.8895L9.78546 18.7804Z" fill="#FBBC05"/>
<path fill-rule="evenodd" clip-rule="evenodd" d="M16.5007 9.27273C18.2626 9.27273 19.8444 9.87818 21.088 11.0673L24.5298 7.62545C22.4516 5.68909 19.7353 4.5 16.5007 4.5C11.8098 4.5 7.75165 7.18909 5.7771 11.1109L9.78619 14.22C10.7298 11.3836 13.3753 9.27273 16.5007 9.27273Z" fill="#EA4335"/>
</svg>
