<svg width="32" height="32" viewBox="0 0 32 32" fill="none" xmlns="http://www.w3.org/2000/svg">
<rect width="32" height="32" rx="16" transform="matrix(1 0 0 -1 0 32)" fill="#FA5959" fill-opacity="0.12"/>
<path d="M24.125 12.25L24.125 19.75C24.1238 20.9099 23.6624 22.022 22.8422 22.8422C22.022 23.6624 20.9099 24.1238 19.75 24.125L12.25 24.125C11.0901 24.1238 9.97798 23.6624 9.15778 22.8422C8.33757 22.022 7.87624 20.9099 7.875 19.75L7.875 12.25C7.87624 11.0901 8.33757 9.97798 9.15778 9.15778C9.97798 8.33758 11.0901 7.87624 12.25 7.875L19.75 7.875C20.9099 7.87624 22.022 8.33758 22.8422 9.15778C23.6624 9.97798 24.1238 11.0901 24.125 12.25ZM12.25 16C12.25 16.7417 12.4699 17.4667 12.882 18.0834C13.294 18.7001 13.8797 19.1807 14.5649 19.4645C15.2502 19.7484 16.0042 19.8226 16.7316 19.6779C17.459 19.5333 18.1272 19.1761 18.6517 18.6517C19.1761 18.1272 19.5332 17.459 19.6779 16.7316C19.8226 16.0042 19.7484 15.2502 19.4645 14.5649C19.1807 13.8797 18.7001 13.294 18.0834 12.882C17.4667 12.4699 16.7417 12.25 16 12.25C15.0058 12.251 14.0525 12.6465 13.3495 13.3495C12.6465 14.0525 12.251 15.0058 12.25 16ZM19.75 11.3125C19.75 11.4979 19.805 11.6792 19.908 11.8333C20.011 11.9875 20.1574 12.1077 20.3287 12.1786C20.5 12.2496 20.6885 12.2682 20.8704 12.232C21.0523 12.1958 21.2193 12.1065 21.3504 11.9754C21.4815 11.8443 21.5708 11.6773 21.607 11.4954C21.6432 11.3135 21.6246 11.125 21.5536 10.9537C21.4827 10.7824 21.3625 10.636 21.2083 10.533C21.0542 10.43 20.8729 10.375 20.6875 10.375C20.4389 10.375 20.2004 10.4738 20.0246 10.6496C19.8488 10.8254 19.75 11.0639 19.75 11.3125ZM16 13.5C15.5055 13.5 15.0222 13.6466 14.6111 13.9213C14.2 14.196 13.8795 14.5865 13.6903 15.0433C13.5011 15.5001 13.4516 16.0028 13.548 16.4877C13.6445 16.9727 13.8826 17.4181 14.2322 17.7678C14.5819 18.1174 15.0273 18.3555 15.5123 18.452C15.9972 18.5484 16.4999 18.4989 16.9567 18.3097C17.4135 18.1205 17.804 17.8 18.0787 17.3889C18.3534 16.9778 18.5 16.4945 18.5 16C18.5 15.337 18.2366 14.7011 17.7678 14.2322C17.2989 13.7634 16.663 13.5 16 13.5Z" fill="#FA5959"/>
</svg>
