<svg width="216" height="74" viewBox="0 0 216 74" fill="none" xmlns="http://www.w3.org/2000/svg">
<g clip-path="url(#clip0_299_1421)">
<path d="M135.8 56.6999C135.8 57.2999 135.7 57.9999 135.5 58.5999C135.2 59.3999 134.5 59.5999 133.8 59.5999C133.1 59.5999 132.6 59.2999 132.3 58.4999C132.1 57.9999 132 57.3999 132 56.8999C132 55.0999 132 53.3999 132 51.5999C132 49.8999 132 48.1999 132 46.4999C132 45.8999 132.1 45.2999 132.3 44.7999C132.6 44.0999 133.1 43.7999 133.8 43.7999C134.5 43.7999 135.1 43.9999 135.4 44.6999C135.7 45.3999 135.8 46.0999 135.8 46.7999C135.9 49.9999 135.8 53.2999 135.8 56.6999ZM140.6 45.2999C140.4 43.1999 139.6 41.4999 137.8 40.4999C136.3 39.6999 134.7 39.4999 133.1 39.5999C131.8 39.6999 130.6 40.0999 129.5 40.8999C128 42.0999 127.3 43.8999 127.3 45.7999C127.2 49.3999 127.3 52.8999 127.3 56.4999C127.3 56.9999 127.3 57.3999 127.4 57.8999C127.7 60.7999 129.5 62.7999 132.3 63.1999C132.5 63.1999 132.8 63.1999 133 63.3999H134.9C135.2 63.1999 135.6 63.2999 135.9 63.1999C137.7 62.7999 139.2 61.8999 140.1 60.0999C140.7 58.8999 140.9 57.4999 140.9 56.0999C140.9 53.0999 140.9 50.0999 140.9 47.1999C140.7 46.6999 140.7 45.9999 140.6 45.2999Z" fill="#1863C5"/>
<path d="M27.9999 40C26.5999 40 25.1999 40 23.8999 40C23.5999 40 23.5999 40.1 23.5999 40.4C23.5999 41.5 23.5999 42.5 23.5999 43.6C23.5999 48 23.5999 52.3 23.5999 56.7C23.5999 57.3 23.5999 57.9 23.3999 58.5C23.0999 59.3 22.6999 59.5 21.6999 59.5C20.9999 59.5 20.4999 59.1 20.3999 58.4C20.2999 57.9 20.1999 57.3 20.1999 56.7C20.1999 51.3 20.1999 45.9 20.1999 40.5C20.1999 40 20.0999 40 19.6999 40C18.3999 40 17.1999 40 15.8999 40C15.4999 40 15.3999 40.1 15.3999 40.5C15.3999 45.9 15.3999 51.2 15.3999 56.6C15.3999 57.2 15.3999 57.7 15.4999 58.3C15.6999 61 17.2999 62.8 19.7999 63.4C20.0999 63.5 20.4999 63.4 20.7999 63.6H22.9999C23.2999 63.4 23.5999 63.5 23.8999 63.4C25.5999 63 26.8999 62.2 27.6999 60.6C28.1999 59.5 28.3999 58.3 28.3999 57C28.3999 51.5 28.3999 45.9 28.3999 40.4C28.3999 40.1 28.2999 40 27.9999 40Z" fill="#1863C5"/>
<path d="M156.2 40.0004C154.9 40.0004 153.6 40.0004 152.4 40.0004C151.8 40.0004 151.8 40.0004 151.8 40.6004C151.8 46.0004 151.8 51.4004 151.8 56.7004C151.8 57.3004 151.8 57.9004 151.6 58.5004C151.3 59.2004 150.9 59.4004 149.9 59.4004C149.2 59.4004 148.8 59.0004 148.6 58.4004C148.4 57.9004 148.4 57.3004 148.4 56.7004C148.4 51.3004 148.4 45.8004 148.4 40.4004C148.4 40.0004 148.3 39.9004 148 39.9004C146.7 39.9004 145.4 39.9004 144.1 39.9004C143.7 39.9004 143.7 40.0004 143.7 40.4004C143.7 45.6004 143.7 50.9004 143.7 56.1004C143.7 56.8004 143.7 57.5004 143.8 58.1004C144 60.8004 145.5 62.6004 148 63.2004C148.3 63.3004 148.7 63.2004 149 63.4004H151.2C151.5 63.2004 151.8 63.3004 152.1 63.2004C153.8 62.9004 155.1 62.0004 156 60.4004C156.6 59.3004 156.7 58.0004 156.7 56.7004C156.7 51.2004 156.7 45.7004 156.7 40.2004C156.6 40.0004 156.5 40.0004 156.2 40.0004Z" fill="#1863C5"/>
<path d="M106.4 50.2002C105.5 49.5002 104.5 48.9002 103.6 48.2002C102.4 47.3002 102 46.2002 102.2 44.7002C102.3 43.9002 102.7 43.5002 103.4 43.5002C104.1 43.4002 104.6 43.8002 104.8 44.5002C104.9 45.0002 104.9 45.5002 104.9 45.9002C104.9 46.2002 105 46.2002 105.2 46.2002C106.5 46.2002 107.8 46.2002 109 46.2002C109.3 46.2002 109.3 46.1002 109.3 45.8002C109.3 45.3002 109.3 44.7002 109.2 44.2002C108.9 42.1002 108 40.6002 106 39.9002C104.3 39.3002 102.5 39.3002 100.8 39.9002C99.3002 40.4002 98.2002 41.5002 97.8002 43.1002C96.9002 46.4002 97.4002 50.0002 100.7 52.3002C101.6 52.9002 102.4 53.5002 103.3 54.1002C104.8 55.1002 105.2 56.6002 104.8 58.3002C104.6 59.2002 104.2 59.5002 103.3 59.5002C102.5 59.5002 102.1 59.1002 101.9 58.2002C101.8 57.6002 101.8 57.0002 101.8 56.4002C101.8 56.1002 101.8 56.0002 101.5 56.0002C100.2 56.0002 98.9002 56.0002 97.5002 56.0002C97.2002 56.0002 97.2002 56.1002 97.2002 56.4002C97.2002 57.1002 97.2002 57.8002 97.3002 58.4002C97.6002 60.8002 99.0002 62.3002 101.2 63.0002C101.5 63.1002 101.7 63.0002 102 63.2002H104.3C104.6 63.0002 104.9 63.1002 105.2 63.0002C107 62.6002 108.4 61.6002 109.1 59.7002C109.5 58.5002 109.6 57.3002 109.5 56.0002C109.5 53.7002 108.5 51.6002 106.4 50.2002Z" fill="#1863C5"/>
<path d="M94.4001 53.0999C93.8001 51.7999 92.9001 50.8999 91.9001 50.0999C91.0001 49.3999 90.0001 48.7999 89.0001 48.0999C87.9001 47.1999 87.5001 46.0999 87.6001 44.6999C87.7001 43.8999 88.1001 43.4999 88.8001 43.4999C89.5001 43.4999 90.0001 43.7999 90.2001 44.4999C90.3001 44.9999 90.3001 45.3999 90.3001 45.8999C90.3001 46.1999 90.4001 46.2999 90.6001 46.2999C91.9001 46.2999 93.2001 46.2999 94.4001 46.2999C94.7001 46.2999 94.7001 46.1999 94.7001 45.9999C94.7001 45.3999 94.7001 44.8999 94.6001 44.2999C94.4001 42.0999 93.0001 40.4999 91.0001 39.8999C89.5001 39.4999 88.0001 39.4999 86.5001 39.9999C85.0001 40.4999 83.8001 41.4999 83.3001 43.0999C82.4001 45.8999 82.7001 49.8999 85.9001 52.2999C86.8001 52.9999 87.8001 53.6999 88.7001 54.2999C90.2001 55.2999 90.5001 56.7999 90.2001 58.4999C90.0001 59.3999 89.6001 59.7999 88.7001 59.7999C87.9001 59.7999 87.5001 59.3999 87.3001 58.4999C87.2001 57.8999 87.2001 57.2999 87.2001 56.6999C87.2001 56.3999 87.1001 56.3999 86.9001 56.3999C85.6001 56.3999 84.2001 56.3999 82.9001 56.3999C82.7001 56.3999 82.6001 56.4999 82.6001 56.6999C82.6001 57.3999 82.6001 58.0999 82.7001 58.7999C83.0001 61.1999 84.3001 62.6999 86.6001 63.3999C86.9001 63.4999 87.1001 63.3999 87.4001 63.5999H89.7001C90.0001 63.4999 90.3001 63.4999 90.6001 63.3999C92.6001 62.9999 94.0001 61.8999 94.6001 59.7999C95.0001 58.4999 95.0001 57.1999 94.9001 55.7999C95.0001 54.7999 94.8001 53.9999 94.4001 53.0999Z" fill="#1863C5"/>
<path d="M42.4998 53.1998C41.8998 51.8998 40.9998 50.9998 39.9998 50.1998C39.0998 49.4998 38.0998 48.8998 37.0998 48.1998C35.9998 47.2998 35.4998 46.1998 35.6998 44.7998C35.7998 43.9998 36.1998 43.5998 36.8998 43.4998C37.6998 43.3998 38.0998 43.7998 38.2998 44.5998C38.3998 45.0998 38.3998 45.4998 38.3998 45.9998C38.3998 46.1998 38.3998 46.2998 38.6998 46.2998C39.9998 46.2998 41.2998 46.2998 42.5998 46.2998C42.7998 46.2998 42.8998 46.1998 42.8998 45.9998C42.8998 45.3998 42.8998 44.8998 42.7998 44.2998C42.4998 42.1998 41.4998 40.6998 39.5998 39.9998C37.8998 39.3998 36.1998 39.3998 34.4998 39.9998C32.9998 40.4998 31.8998 41.5998 31.3998 43.1998C30.4998 46.4998 31.0998 50.1998 34.2998 52.3998C35.1998 52.9998 35.9998 53.5998 36.8998 54.1998C38.3998 55.1998 38.6998 56.6998 38.3998 58.3998C38.1998 59.2998 37.7998 59.6998 36.8998 59.6998C36.0998 59.6998 35.6998 59.2998 35.4998 58.3998C35.3998 57.7998 35.3998 57.1998 35.3998 56.5998C35.3998 56.3998 35.3998 56.2998 35.0998 56.2998C33.7998 56.2998 32.3998 56.2998 31.0998 56.2998C30.7998 56.2998 30.7998 56.3998 30.7998 56.5998C30.7998 57.2998 30.7998 57.9998 30.8998 58.5998C31.1998 60.9998 32.4998 62.4998 34.7998 63.1998C35.0998 63.2998 35.3998 63.1998 35.6998 63.3998H37.9998C38.2998 63.1998 38.5998 63.2998 38.8998 63.1998C40.8998 62.7998 42.2998 61.6998 42.8998 59.5998C43.2998 58.2998 43.2998 56.9998 43.1998 55.5998C42.9998 54.7998 42.8998 53.9998 42.4998 53.1998Z" fill="#1863C5"/>
<path d="M187.6 39.9996C186.5 39.9996 185.5 39.9996 184.4 39.9996C184 39.9996 183.9 40.0996 183.9 40.4996C183.9 44.1996 183.9 47.8996 183.9 51.5996V51.9996C183.8 51.8996 183.7 51.7996 183.7 51.6996C182.6 47.9996 181.4 44.1996 180.3 40.4996C180.2 40.0996 180 39.9996 179.6 39.9996C178.2 39.9996 176.8 39.9996 175.3 39.9996C175 39.9996 174.9 40.0996 174.9 40.3996C174.9 41.9996 174.9 43.5996 174.9 45.2996C174.9 51.0996 174.9 56.9996 174.9 62.7996C174.9 63.1996 175 63.2996 175.3 63.2996C176.4 63.2996 177.4 63.2996 178.5 63.2996C178.9 63.2996 179 63.1996 179 62.7996C179 61.1996 179 59.6996 179 58.0996V48.9996H179.1C179.1 49.0996 179.1 49.0996 179.2 49.1996C180.6 53.6996 182 58.1996 183.3 62.7996C183.4 63.0996 183.5 63.1996 183.8 63.1996C185.1 63.1996 186.3 63.1996 187.6 63.1996C187.9 63.1996 188 63.0996 188 62.7996C188 61.0996 188 59.3996 188 57.7996C188 52.0996 188 46.2996 188 40.5996C188.1 39.9996 188 39.8996 187.6 39.9996Z" fill="#1863C5"/>
<path d="M66.8001 40C65.7001 40 64.6001 40 63.4001 40C63.0001 40 63.0001 40.1 63.0001 40.5C63.0001 43.9 63.0001 47.2 63.0001 50.6V52.2H62.9001C62.9001 52.1 62.8001 51.9 62.8001 51.8C61.7001 48 60.5001 44.2 59.4001 40.5C59.2001 40 59.1001 40 58.8001 40C57.4001 40 55.9001 40 54.5001 40C54.2001 40 54.1001 40.1 54.1001 40.4C54.1001 47.9 54.1001 55.4 54.1001 62.8C54.1001 63.1 54.2001 63.2 54.4001 63.2C55.5001 63.2 56.6001 63.2 57.8001 63.2C58.2001 63.2 58.2001 63.1 58.2001 62.7C58.2001 58.3 58.2001 53.8 58.2001 49.4V49C58.3001 49.2 58.4001 49.4 58.5001 49.6C59.8001 54 61.2001 58.4 62.5001 62.8C62.6001 63.1 62.7001 63.2 63.0001 63.2C64.3001 63.2 65.5001 63.2 66.8001 63.2C67.1001 63.2 67.1001 63.1 67.1001 62.9C67.1001 55.4 67.1001 47.9 67.1001 40.4C67.1001 40 67.0001 40 66.8001 40Z" fill="#1863C5"/>
<path d="M167.4 48.7996C167.3 49.7996 166.8 50.2996 165.8 50.2996C165.4 50.2996 165.1 50.2996 164.7 50.2996C164.5 50.2996 164.4 50.1996 164.4 49.9996C164.4 49.7996 164.4 49.4996 164.4 49.2996C164.4 48.5996 164.4 47.7996 164.4 47.0996C164.4 46.3996 164.4 45.6996 164.4 44.9996C164.4 44.7996 164.4 44.4996 164.4 44.2996C164.4 43.9996 164.4 43.8996 164.7 43.8996C165.1 43.8996 165.4 43.8996 165.8 43.8996C166.7 43.8996 167.2 44.3996 167.3 45.3996C167.5 46.3996 167.5 47.5996 167.4 48.7996ZM172.6 62.8996C171.7 59.5996 170.8 56.2996 169.9 53.0996C169.8 52.7996 169.8 52.6996 170.1 52.5996C171.1 51.9996 171.7 51.0996 171.9 49.8996C172.2 48.0996 172.2 46.1996 172 44.2996C171.8 42.1996 170.6 40.8996 168.7 40.3996C167.9 40.1996 167.2 40.0996 166.4 40.0996C164.3 40.0996 162.3 40.0996 160.2 40.0996C159.8 40.0996 159.7 40.1996 159.7 40.5996C159.7 47.9996 159.7 55.3996 159.7 62.7996C159.7 62.8996 159.7 62.9996 159.7 62.9996C159.7 63.1996 159.7 63.2996 160 63.2996C161.4 63.2996 162.8 63.2996 164.2 63.2996C164.4 63.2996 164.5 63.1996 164.5 62.9996C164.5 62.8996 164.5 62.7996 164.5 62.6996C164.5 59.7996 164.5 56.8996 164.5 53.9996C164.5 53.8996 164.4 53.6996 164.6 53.5996C165 53.3996 165.4 53.5996 165.5 53.9996C166.2 56.9996 167 59.8996 167.7 62.8996C167.8 63.0996 167.8 63.1996 168 63.1996C169.5 63.1996 171.1 63.1996 172.7 63.1996C172.6 62.9996 172.6 62.9996 172.6 62.8996Z" fill="#1863C5"/>
<path d="M7.9002 58.1C7.7002 59.1 7.2002 59.5 6.3002 59.6C5.9002 59.6 5.3002 59.8 5.0002 59.5C4.7002 59.3 4.9002 58.6 4.9002 58.2C4.9002 57.8 4.9002 57.5 4.9002 57.1C4.9002 56.7 4.9002 56.4 4.9002 56C4.9002 55.5 4.9002 55 4.9002 54.5C4.9002 54 4.9002 53.5 4.9002 53C4.9002 52.7 5.0002 52.6 5.3002 52.6C5.7002 52.6 6.0002 52.6 6.4002 52.6C7.4002 52.7 7.9002 53.1 8.0002 54.1C8.1002 55.5 8.1002 56.8 7.9002 58.1ZM5.1002 43.5C5.6002 43.5 6.1002 43.5 6.6002 43.6C7.2002 43.7 7.6002 44.2 7.7002 44.8C7.8002 45.9 7.8002 46.9 7.7002 48C7.6002 48.9 7.1002 49.3 6.1002 49.4C4.9002 49.5 4.9002 49.5 4.9002 48.2V46.4C4.9002 45.5 4.9002 44.7 4.9002 43.8C4.9002 43.7 4.8002 43.5 5.1002 43.5ZM12.7002 54.8C12.5002 53 11.5002 51.8 9.9002 51.2C9.60019 51.1 9.3002 51.1 9.0002 51C9.3002 50.9 9.5002 50.8 9.7002 50.8C11.3002 50.2 12.1002 49 12.2002 47.3C12.3002 46.3 12.3002 45.4 12.2002 44.4C12.1002 43.5 11.9002 42.6 11.3002 41.8C10.3002 40.5 8.9002 40.2 7.5002 40.1C5.2002 39.9 2.9002 40.1 0.600195 40C0.300195 40 0.200195 40.1 0.200195 40.4C0.200195 47.8 0.200195 55.3 0.200195 62.7C0.200195 63 0.300195 63.1 0.600195 63.1C2.5002 63.1 4.5002 63.1 6.4002 63.1C7.1002 63.1 7.9002 63.1 8.6002 62.9C10.7002 62.5 12.1002 61.3 12.5002 59.3C12.9002 57.9 12.8002 56.3 12.7002 54.8Z" fill="#1863C5"/>
<path d="M198 55.0004C197.3 55.0004 196.7 55.0004 196 55.0004C195.8 55.0004 195.7 54.9004 195.8 54.7004C196.2 51.6004 196.6 48.5004 196.9 45.4004C196.9 45.2004 197 45.0004 197 44.8004H197.1C197.2 45.6004 197.3 46.4004 197.4 47.1004C197.7 49.6004 198 52.1004 198.3 54.6004C198.3 54.9004 198.3 55.0004 198 55.0004ZM203.2 56.6004C202.6 52.9004 202.1 49.2004 201.5 45.5004C201.2 43.7004 201 42.0004 200.7 40.2004C200.7 40.0004 200.6 39.9004 200.4 39.9004C198.3 39.9004 196.2 39.9004 194.1 39.9004C193.9 39.9004 193.8 40.0004 193.8 40.2004C193.7 40.9004 193.6 41.5004 193.5 42.2004C192.5 49.1004 191.4 55.9004 190.4 62.8004C190.4 63.1004 190.4 63.1004 190.7 63.1004C191.9 63.1004 193.1 63.1004 194.2 63.1004C194.6 63.1004 194.7 62.9004 194.8 62.6004C194.9 61.3004 195.1 60.1004 195.2 58.8004C195.2 58.5004 195.4 58.4004 195.7 58.4004C196.5 58.4004 197.3 58.4004 198.2 58.4004C198.8 58.4004 198.8 58.4004 198.9 59.0004C199.1 60.3004 199.2 61.5004 199.4 62.8004C199.4 63.0004 199.4 63.1004 199.6 63.1004C201.1 63.1004 202.6 63.1004 204.2 63.1004C203.9 60.9004 203.5 58.8004 203.2 56.6004Z" fill="#1863C5"/>
<path d="M80.2002 59.2002C78.6002 59.2002 77.0002 59.2002 75.4002 59.2002C75.1002 59.2002 75.0002 59.1002 75.0002 58.8002C75.0002 56.9002 75.0002 55.0002 75.0002 53.1002C75.0002 52.8002 75.1002 52.7002 75.4002 52.7002C76.6002 52.7002 77.7002 52.7002 78.9002 52.7002C79.2002 52.7002 79.2002 52.6002 79.2002 52.3002C79.2002 51.3002 79.2002 50.3002 79.2002 49.3002C79.2002 49.0002 79.1002 48.9002 78.8002 48.9002C77.7002 48.9002 76.5002 48.9002 75.4002 48.9002C75.1002 48.9002 75.0002 48.8002 75.0002 48.5002C75.0002 47.0002 75.0002 45.5002 75.0002 44.1002C75.0002 43.8002 75.1002 43.7002 75.4002 43.7002C76.9002 43.7002 78.4002 43.7002 79.9002 43.7002C80.2002 43.7002 80.3002 43.6002 80.3002 43.3002C80.3002 42.3002 80.3002 41.2002 80.3002 40.2002C80.3002 39.8002 80.2002 39.7002 79.8002 39.7002C76.8002 39.7002 73.7002 39.7002 70.7002 39.7002C70.3002 39.7002 70.2002 39.8002 70.2002 40.2002C70.2002 43.9002 70.2002 47.6002 70.2002 51.4002C70.2002 55.1002 70.2002 58.8002 70.2002 62.6002C70.2002 62.9002 70.2002 63.0002 70.5002 63.0002C73.7002 63.0002 76.9002 63.0002 80.1002 63.0002C80.4002 63.0002 80.4002 62.9002 80.4002 62.7002C80.4002 61.6002 80.4002 60.6002 80.4002 59.5002C80.6002 59.3002 80.5002 59.2002 80.2002 59.2002Z" fill="#1863C5"/>
<path d="M81.6002 11.1C81.2002 11.1 80.8002 11.1 80.5002 11.1C80.1002 11.1 80.0002 11.2 80.0002 11.6C80.0002 16.9 80.0002 22.3 80.0002 27.6V28.1C79.8002 27.9 79.8002 27.7 79.8002 27.5C78.1002 22.1 76.3002 16.8 74.6002 11.4C74.5002 11.1 74.4002 11 74.1002 11C73.5002 11 72.8002 11 72.2002 11C71.8002 11 71.7002 11.1 71.7002 11.5C71.7002 18.9 71.7002 26.3 71.7002 33.7C71.7002 33.8 71.7002 33.8 71.7002 33.9C71.7002 34.2 71.8002 34.2 72.0002 34.2C72.4002 34.2 72.9002 34.2 73.3002 34.2C73.7002 34.2 73.8002 34.1 73.8002 33.7C73.8002 29.5 73.8002 25.3 73.8002 21.1C73.8002 19.3 73.8002 17.5 73.8002 15.8C73.8002 15.8 73.8002 15.8 73.9002 15.8C74.1002 16.3 74.3002 16.9 74.4002 17.4C76.1002 22.8 77.9002 28.3 79.6002 33.7C79.7002 34.1 79.9002 34.2 80.2002 34.2C80.7002 34.2 81.2002 34.2 81.7002 34.2C82.1002 34.2 82.2002 34.1 82.2002 33.7C82.2002 28.3 82.2002 23 82.2002 17.6C82.2002 15.6 82.2002 13.5 82.2002 11.5C82.1002 11.2 82.0002 11.1 81.6002 11.1Z" fill="#1863C5"/>
<path d="M211.6 59.2C211.3 59.2 211.2 59.1 211.2 58.8C211.2 54.6 211.2 50.5 211.2 46.3C211.2 44.3 211.2 42.4 211.2 40.4C211.2 40.1 211.1 40 210.8 40C209.4 40 208.1 40 206.7 40C206.4 40 206.4 40.1 206.4 40.4C206.4 47.9 206.4 55.4 206.4 62.9C206.4 63.2 206.5 63.2 206.7 63.2C207.7 63.2 208.8 63.2 209.9 63.2C212 63.2 214 63.2 216.1 63.2V59.2C214.6 59.2 213.1 59.1 211.6 59.2Z" fill="#1863C5"/>
<path d="M123.9 40C122.6 40 121.3 40 120 40C119.6 40 119.5 40.1 119.5 40.5C119.5 45.9 119.5 51.3 119.5 56.7C119.5 56.9 119.5 57.2 119.5 57.4C119.4 58.6 118.8 59.2 117.7 59.2C117.3 59.2 116.9 59.2 116.5 59.1C116.2 59 116.2 59.1 116.2 59.4C116.2 60.5 116.2 61.5 116.2 62.6C116.2 62.9 116.3 63 116.6 63.1C118.2 63.6 119.8 63.6 121.3 63C122.6 62.5 123.4 61.5 123.9 60.2C124.2 59.5 124.3 58.7 124.3 57.9C124.3 55.1 124.3 52.2 124.3 49.4C124.3 46.4 124.3 43.5 124.3 40.5C124.3 40 124.2 40 123.9 40Z" fill="#1863C5"/>
<path d="M50.5 40C49.2 40 47.8 40 46.5 40C46.1 40 46 40.1 46 40.5C46 44.2 46 47.9 46 51.6C46 55.3 46 59 46 62.7C46 63 46 63.2 46.4 63.2C47.8 63.2 49.1 63.2 50.5 63.2C50.8 63.2 50.8 63.1 50.8 62.8C50.8 55.3 50.8 47.9 50.8 40.4C50.8 40.1 50.8 40 50.5 40Z" fill="#1863C5"/>
<path d="M55.0001 33.7996C53.2001 29.9996 51.3001 26.0996 49.5001 22.2996C49.4001 21.9996 49.3001 21.7996 49.5001 21.4996C51.3001 18.1996 53.0001 14.7996 54.8001 11.4996C54.9001 11.3996 55.0001 11.2996 55.0001 11.0996C54.3001 11.0996 53.7001 11.0996 53.0001 11.0996C52.7001 11.0996 52.6001 11.1996 52.4001 11.4996C50.7001 14.7996 49.0001 18.1996 47.3001 21.4996C47.2001 21.5996 47.2001 21.7996 47.0001 21.9996C47.0001 21.6996 47.0001 21.5996 47.0001 21.4996C47.0001 18.1996 47.0001 14.8996 47.0001 11.4996C47.0001 11.1996 46.9001 11.0996 46.6001 11.0996C46.1001 11.0996 45.6001 11.0996 45.1001 11.0996C44.7001 11.0996 44.6001 11.1996 44.6001 11.5996C44.6001 18.8996 44.6001 26.2996 44.6001 33.5996C44.6001 33.6996 44.6001 33.7996 44.6001 33.9996C44.6001 34.1996 44.7001 34.2996 44.9001 34.2996C45.4001 34.2996 46.0001 34.2996 46.5001 34.2996C46.8001 34.2996 46.9001 34.1996 46.9001 33.8996C46.9001 31.1996 46.9001 28.5996 46.9001 25.8996C46.9001 24.7996 46.9001 23.6996 46.9001 22.5996C46.9001 22.5996 46.9001 22.5996 47.0001 22.5996C47.1001 22.6996 47.1001 22.8996 47.2001 22.9996C49.0001 26.6996 50.7001 30.2996 52.5001 33.9996C52.6001 34.2996 52.8001 34.3996 53.1001 34.3996C53.6001 34.3996 54.2001 34.3996 54.7001 34.3996C55.3001 34.2996 55.3001 34.2996 55.0001 33.7996Z" fill="#1863C5"/>
<path d="M105.3 26.6C104.1 26.6 103 26.6 101.8 26.6C101.5 26.6 101.5 26.5 101.5 26.2C102.1 22.7 102.6 19.2 103.2 15.7C103.3 14.9 103.5 14 103.6 13.2C103.6 13.2 103.6 13.2 103.7 13.2C104 15.2 104.3 17.2 104.7 19.2C105.1 21.5 105.4 23.8 105.8 26C105.8 26.6 105.8 26.6 105.3 26.6ZM109.2 33.7C108.6 30 108 26.3 107.3 22.6C106.7 18.9 106 15.1 105.4 11.4C105.4 11.1 105.2 11 105 11C104.2 11 103.3 11 102.5 11C101.9 11 101.9 11 101.8 11.6C101.2 15.4 100.5 19.3 99.9001 23.1C99.3001 26.7 98.7001 30.3 98.1001 33.9C98.1001 34.1 98.1001 34.2 98.3001 34.2C98.8001 34.2 99.3001 34.2 99.9001 34.2C100.2 34.2 100.3 34.1 100.3 33.8C100.6 32.1 100.8 30.4 101.1 28.8C101.1 28.5 101.2 28.4 101.5 28.4C102.9 28.4 104.4 28.4 105.8 28.4C106.1 28.4 106.2 28.5 106.2 28.7C106.4 30.1 106.7 31.6 106.9 33C107.1 34.2 107.1 34.2 108.2 34.2H108.8C109.3 34.3 109.3 34.3 109.2 33.7Z" fill="#1863C5"/>
<path d="M64.5001 26.5996C63.3001 26.5996 62.1001 26.5996 60.9001 26.5996C60.6001 26.5996 60.6001 26.4996 60.6001 26.1996C61.3001 21.9996 62.0001 17.7996 62.7001 13.4996C62.7001 13.3996 62.8001 13.2996 62.8001 13.0996C63.5001 17.4996 64.2001 21.7996 64.9001 26.0996C64.9001 26.4996 64.9001 26.5996 64.5001 26.5996ZM68.4001 33.9996C68.3001 33.3996 68.2001 32.7996 68.1001 32.1996C66.9001 25.2996 65.8001 18.3996 64.6001 11.3996C64.6001 11.0996 64.5001 11.0996 64.2001 11.0996C63.3001 11.0996 62.3001 11.0996 61.4001 11.0996C61.1001 11.0996 61.0001 11.1996 61.0001 11.4996C60.8001 12.6996 60.6001 13.8996 60.4001 15.1996C59.7001 19.4996 58.9001 23.8996 58.2001 28.1996C57.9001 30.0996 57.5001 32.0996 57.2001 33.9996C57.1001 34.2996 57.2001 34.3996 57.5001 34.3996C58.0001 34.3996 58.4001 34.3996 58.9001 34.3996C59.3001 34.3996 59.4001 34.2996 59.4001 33.8996C59.7001 32.1996 59.9001 30.5996 60.2001 28.8996C60.2001 28.5996 60.4001 28.4996 60.6001 28.4996C62.0001 28.4996 63.4001 28.4996 64.8001 28.4996C65.1001 28.4996 65.2001 28.5996 65.3001 28.8996C65.5001 30.2996 65.8001 31.7996 66.0001 33.1996C66.1001 33.5996 66.0001 34.0996 66.2001 34.2996C66.5001 34.4996 66.9001 34.2996 67.2001 34.3996C67.6001 34.3996 67.8001 34.3996 68.1001 34.3996C68.5001 34.2996 68.5001 34.1996 68.4001 33.9996Z" fill="#1863C5"/>
<path d="M92.4 21.9999C91.6 21.3999 90.9 20.7999 90.1 20.0999C88.7 18.8999 87.9 17.4999 88 15.4999C88.1 13.7999 88.8 12.8999 90.4 12.7999C91.7 12.6999 92.6 13.4999 92.9 14.7999C93 15.1999 93 15.4999 93 15.8999C93 16.6999 93 16.6999 93.8 16.6999C94.2 16.6999 94.8 16.8999 95 16.5999C95.3 16.2999 95.1 15.6999 95.1 15.1999C95 13.4999 94.4 11.9999 92.9 11.1999C92 10.6999 91.1 10.5999 90.1 10.6999C88 10.7999 86.5 11.9999 86 14.0999C85.7 15.1999 85.8 16.2999 85.9 17.3999C86.2 19.2999 87.2 20.5999 88.6 21.7999C89.5 22.5999 90.5 23.2999 91.4 24.0999C93.4 25.7999 93.6 28.0999 93.1 30.4999C92.8 31.7999 91.9 32.3999 90.5 32.3999C89.1 32.3999 88.3 31.6999 88 30.3999C87.8 29.6999 87.8 28.8999 87.8 28.1999C87.8 27.8999 87.7 27.7999 87.4 27.7999C86.9 27.7999 86.4 27.7999 85.8 27.7999C85.6 27.7999 85.5 27.8999 85.5 28.0999C85.5 28.6999 85.5 29.2999 85.6 29.9999C85.9 32.0999 87 33.7999 89.2 34.2999C90 34.4999 90.8 34.4999 91.6 34.3999C93 34.1999 94.1 33.4999 94.8 32.0999C95.4 30.9999 95.5 29.7999 95.5 28.1999C95.7 25.8999 94.6 23.6999 92.4 21.9999Z" fill="#1863C5"/>
<path d="M117.6 34.4998C119 34.2998 120.2 33.5998 120.9 32.1998C121.5 30.8998 121.6 29.5998 121.6 28.1998C121.6 25.8998 120.8 23.9998 119.1 22.4998C118.2 21.6998 117.2 20.8998 116.3 20.1998C114.8 18.9998 114.1 17.4998 114.1 15.5998C114.2 13.8998 115 12.9998 116.5 12.8998C117.8 12.7998 118.7 13.5998 119 14.8998C119.1 15.3998 119.1 15.9998 119.1 16.4998C119.1 16.7998 119.2 16.7998 119.4 16.7998C119.9 16.7998 120.4 16.7998 121 16.7998C121.2 16.7998 121.3 16.6998 121.3 16.4998C121.3 15.7998 121.3 15.1998 121.2 14.4998C120.9 13.0998 120.3 11.8998 119 11.2998C118.1 10.8998 117.2 10.7998 116.3 10.7998C114.3 10.8998 112.8 11.9998 112.3 13.8998C111.6 16.3998 112 18.7998 113.7 20.7998C114.6 21.8998 115.7 22.6998 116.8 23.4998C118.5 24.7998 119.7 26.3998 119.5 28.7998C119.5 29.2998 119.5 29.8998 119.4 30.3998C119.1 31.6998 118.2 32.4998 117 32.5998C115.4 32.5998 114.5 31.9998 114.2 30.5998C114 29.8998 114 29.1998 114 28.3998C114 28.0998 114 27.9998 113.7 27.9998C113.2 27.9998 112.6 27.9998 112.1 27.9998C111.8 27.9998 111.8 28.0998 111.8 28.2998C111.8 28.8998 111.8 29.5998 111.9 30.1998C112.2 32.2998 113.3 33.8998 115.5 34.3998C116.1 34.5998 116.9 34.5998 117.6 34.4998Z" fill="#1863C5"/>
<path d="M140.8 28.0002C140.3 28.0002 139.8 28.0002 139.3 28.0002C139 28.0002 138.9 28.1002 138.9 28.4002C138.9 28.7002 138.9 29.0002 138.9 29.3002C138.8 31.3002 137.7 32.4002 135.8 32.5002C134.2 32.6002 133.1 31.7002 132.7 30.1002C132.5 29.4002 132.4 28.8002 132.4 28.1002C132.4 26.3002 132.4 24.5002 132.4 22.7002C132.4 20.9002 132.4 19.2002 132.4 17.4002C132.4 16.9002 132.4 16.4002 132.5 15.9002C132.8 14.0002 133.8 13.0002 135.5 12.8002C137.2 12.7002 138.3 13.5002 138.6 15.3002C138.7 15.7002 138.7 16.1002 138.7 16.5002C138.7 16.7002 138.7 16.8002 139 16.8002C139.6 16.8002 140.2 16.8002 140.8 16.8002C141 16.8002 141.1 16.7002 141 16.5002C141 16.2002 141 15.8002 140.9 15.5002C140.7 13.3002 139.6 11.8002 137.8 11.1002C137 10.8002 136.1 10.7002 135.3 10.8002C133.2 11.0002 131.6 12.0002 130.7 14.1002C130.2 15.2002 130.1 16.4002 130.1 17.6002C130.1 21.0002 130.1 24.4002 130.1 27.8002C130.1 28.5002 130.2 29.2002 130.3 29.9002C130.7 31.8002 131.6 33.4002 133.4 34.2002C134.8 34.8002 136.2 34.8002 137.6 34.4002C139.2 34.0002 140.2 33.0002 140.8 31.4002C141.1 30.4002 141.2 29.4002 141.2 28.4002C141.1 28.0002 141 28.0002 140.8 28.0002Z" fill="#1863C5"/>
<path d="M171.7 11.1004C171.4 11.1004 171.3 11.2004 171.2 11.5004C170.6 13.6004 169.9 15.6004 169.2 17.7004C168.8 18.8004 168.5 20.0004 168.1 21.1004H168C167.8 20.6004 167.7 20.1004 167.5 19.6004C166.6 16.9004 165.7 14.2004 164.9 11.4004C164.8 11.2004 164.9 11.0004 164.6 11.0004C163.9 11.0004 163.1 11.0004 162.4 11.0004C162.5 11.2004 162.5 11.3004 162.5 11.4004C163.9 15.5004 165.3 19.6004 166.7 23.7004C166.8 24.0004 166.8 24.2004 166.8 24.5004C166.8 27.6004 166.8 30.7004 166.8 33.8004C166.8 34.1004 166.9 34.2004 167.2 34.2004C167.7 34.2004 168.3 34.2004 168.8 34.2004C169.2 34.2004 169.2 34.1004 169.2 33.7004C169.2 30.6004 169.2 27.5004 169.2 24.4004C169.2 24.1004 169.2 23.9004 169.3 23.6004C170.3 20.5004 171.3 17.4004 172.3 14.3004C172.7 13.2004 173 12.1004 173.4 10.9004C172.8 11.1004 172.3 11.1004 171.7 11.1004Z" fill="#1863C5"/>
<path d="M160.3 12.7002C160.3 12.3002 160.3 11.9002 160.3 11.5002C160.3 11.3002 160.3 11.2002 160 11.2002C156.9 11.2002 153.8 11.2002 150.6 11.2002C150.4 11.2002 150.3 11.3002 150.3 11.5002C150.3 11.9002 150.3 12.3002 150.3 12.7002C150.3 13.0002 150.4 13.1002 150.7 13.1002C151.7 13.1002 152.7 13.1002 153.6 13.1002C154 13.1002 154.1 13.2002 154.1 13.6002C154.1 17.0002 154.1 20.3002 154.1 23.7002C154.1 27.1002 154.1 30.5002 154.1 33.9002C154.1 34.3002 154.2 34.4002 154.5 34.3002C154.9 34.3002 155.4 34.3002 155.8 34.3002C156.2 34.3002 156.3 34.2002 156.3 33.7002C156.3 27.0002 156.3 20.2002 156.3 13.5002C156.3 13.1002 156.4 13.0002 156.8 13.0002C157.8 13.0002 158.8 13.0002 159.8 13.0002C160.2 13.1002 160.3 13.0002 160.3 12.7002Z" fill="#1863C5"/>
<path d="M145.1 34.2996C145.6 34.2996 146 34.2996 146.5 34.2996C146.9 34.2996 147 34.1996 147 33.7996C147 27.8996 147 21.9996 147 15.9996C147 14.4996 147 12.9996 147 11.4996C147 11.1996 146.9 11.0996 146.6 11.0996C146.1 11.0996 145.6 11.0996 145 11.0996C144.6 11.0996 144.6 11.1996 144.6 11.5996C144.6 15.2996 144.6 18.9996 144.6 22.7996C144.6 22.9996 144.6 23.1996 144.6 23.2996C144.6 26.7996 144.6 30.3996 144.6 33.8996C144.7 34.1996 144.8 34.2996 145.1 34.2996Z" fill="#1863C5"/>
</g>
<defs>
<clipPath id="clip0_299_1421">
<rect width="216" height="74" fill="white"/>
</clipPath>
</defs>
</svg>
