<svg width="216" height="74" viewBox="0 0 216 74" fill="none" xmlns="http://www.w3.org/2000/svg">
<g clip-path="url(#clip0_299_1460)">
<path d="M89.7001 56.5004C89.3001 57.8004 88.2001 58.5004 86.7001 58.5004C85.8001 58.5004 84.9001 58.5004 84.1001 58.5004C83.8001 58.5004 83.7001 58.4004 83.7001 58.1004C83.7001 57.0004 83.7001 55.9004 83.7001 54.8004C83.7001 53.7004 83.7001 52.6004 83.7001 51.5004C83.7001 51.2004 83.8001 51.1004 84.1001 51.1004C85.1001 51.1004 86.2001 51.1004 87.2001 51.2004C88.8001 51.3004 89.6001 52.6004 89.8001 53.8004C90.0001 54.7004 90.0001 55.7004 89.7001 56.5004ZM96.8001 72.8004C95.2001 69.3004 93.7001 65.8004 92.1001 62.2004C92.0001 61.9004 92.0001 61.7004 92.3001 61.5004C93.6001 60.8004 94.6001 59.7004 95.2001 58.2004C95.9001 56.5004 96.0001 54.7004 95.7001 52.9004C95.2001 50.3004 93.8001 48.3004 91.3001 47.4004C90.1001 47.0004 89.0001 47.0004 87.8001 46.9004C84.6001 46.9004 81.3001 46.9004 78.1001 46.9004C77.7001 46.9004 77.6001 47.0004 77.6001 47.4004C77.6001 51.6004 77.6001 55.9004 77.6001 60.1004C77.6001 64.3004 77.6001 68.5004 77.6001 72.8004C77.6001 73.2004 77.7001 73.3004 78.0001 73.3004C79.7001 73.3004 81.4001 73.3004 83.1001 73.3004C83.5001 73.3004 83.6001 73.2004 83.6001 72.7004C83.6001 69.5004 83.6001 66.4004 83.6001 63.2004C83.6001 62.8004 83.7001 62.7004 84.0001 62.8004C84.7001 62.8004 85.4001 62.8004 86.2001 62.8004C86.5001 62.8004 86.7001 62.9004 86.8001 63.2004C87.9001 66.4004 89.1001 69.6004 90.2001 72.8004C90.3001 73.2004 90.5001 73.3004 90.9001 73.3004C92.8001 73.3004 94.6001 73.3004 96.5001 73.3004C97.1001 73.3004 97.1001 73.3004 96.8001 72.8004Z" fill="#1863C5"/>
<path d="M148.8 63.1004C148.9 62.9004 148.8 62.8004 148.8 62.6004C148.8 57.6004 148.8 52.5004 148.8 47.5004C148.8 47.0004 148.9 46.9004 149.4 46.9004C150.6 46.9004 151.8 46.9004 153 46.9004C153.4 46.9004 153.5 47.0004 153.5 47.4004C153.5 49.5004 153.5 51.7004 153.5 53.8004C153.5 60.1004 153.5 66.4004 153.5 72.7004C153.5 73.2004 153.4 73.3004 152.9 73.3004C151.5 73.3004 150 73.3004 148.6 73.3004C148.3 73.3004 148.1 73.2004 148 72.9004C145.4 66.9004 142.8 60.9004 140.2 54.8004C140.1 54.7004 140.1 54.5004 139.9 54.4004V54.9004C139.9 60.8004 139.9 66.8004 139.9 72.7004C139.9 73.2004 139.8 73.3004 139.3 73.3004C138.1 73.3004 136.9 73.3004 135.7 73.3004C135.4 73.3004 135.3 73.2004 135.3 72.9004C135.3 64.4004 135.3 55.9004 135.3 47.4004C135.3 47.1004 135.4 47.0004 135.7 47.0004C137.7 47.0004 139.6 47.0004 141.6 47.0004C141.9 47.0004 142 47.1004 142.1 47.4004C144.3 52.5004 146.4 57.6004 148.6 62.7004C148.6 62.7004 148.6 62.9004 148.8 63.1004Z" fill="#1863C5"/>
<path d="M68.3002 27.4998C68.9002 26.4998 69.5002 25.3998 70.1002 24.3998C71.5002 21.8998 72.9002 19.4998 74.3002 16.9998C74.4002 16.6998 74.6002 16.6998 74.9002 16.6998C76.5002 16.6998 78.1002 16.6998 79.7002 16.6998C79.8002 16.6998 80.0002 16.5998 80.1002 16.7998C80.2002 16.8998 80.0002 16.9998 79.9002 17.1998C78.0002 20.0998 76.0002 22.9998 74.0002 25.9998C73.8002 26.2998 73.8002 26.4998 73.9002 26.7998C76.1002 32.0998 78.3002 37.3998 80.6002 42.5998C80.7002 42.9998 80.7002 42.9998 80.3002 42.9998C78.6002 42.9998 77.0002 42.9998 75.3002 42.9998C75.0002 42.9998 74.9002 42.8998 74.8002 42.5998C73.4002 38.8998 72.0002 35.0998 70.6002 31.3998C70.5002 31.2998 70.5002 31.0998 70.4002 30.8998C69.9002 31.5998 69.5002 32.3998 69.0002 32.9998C68.4002 33.6998 68.3002 34.4998 68.3002 35.3998C68.4002 37.7998 68.3002 40.1998 68.3002 42.5998C68.3002 42.9998 68.2002 43.0998 67.8002 43.0998C66.2002 43.0998 64.6002 43.0998 63.1002 43.0998C62.8002 43.0998 62.7002 43.0998 62.7002 42.6998C62.7002 34.1998 62.7002 25.6998 62.7002 17.1998C62.7002 16.8998 62.8002 16.7998 63.1002 16.7998C64.7002 16.7998 66.3002 16.7998 67.9002 16.7998C68.3002 16.7998 68.3002 16.8998 68.3002 17.2998C68.3002 20.5998 68.3002 23.8998 68.3002 27.0998C68.2002 27.1998 68.2002 27.2998 68.3002 27.4998Z" fill="#1863C5"/>
<path d="M119.1 63.3004C118.7 63.3004 118.9 63.1004 118.9 62.9004C119.7 59.8004 120.4 56.6004 121.2 53.5004C121.3 53.2004 121.3 53.0004 121.5 52.7004C122.4 56.2004 123.3 59.7004 124.2 63.3004C122.4 63.3004 120.8 63.3004 119.1 63.3004ZM132.6 72.7004C131.1 67.8004 129.7 62.8004 128.2 57.9004C127.2 54.4004 126.1 50.8004 125.1 47.3004C125 47.0004 125 46.9004 124.6 46.9004C122.8 46.9004 121 46.9004 119.3 46.9004C119 46.9004 118.9 47.0004 118.9 47.2004C118.7 48.0004 118.4 48.8004 118.2 49.6004C115.8 57.3004 113.4 65.0004 111 72.7004C110.9 73.1004 110.9 73.2004 111.3 73.2004C112.8 73.2004 114.3 73.2004 115.9 73.2004C116.2 73.2004 116.4 73.1004 116.4 72.8004C116.8 71.3004 117.2 69.7004 117.5 68.2004C117.6 67.9004 117.7 67.8004 118 67.8004C120.3 67.8004 122.6 67.8004 124.9 67.8004C125.2 67.8004 125.3 67.9004 125.4 68.2004C125.8 69.8004 126.2 71.3004 126.5 72.9004C126.6 73.2004 126.7 73.3004 127 73.3004C127.9 73.3004 128.8 73.3004 129.6 73.3004C130.4 73.3004 131.3 73.3004 132.1 73.3004C132.8 73.3004 132.8 73.3004 132.6 72.7004Z" fill="#1863C5"/>
<path d="M82.6 29.8006C82.6 25.6006 82.6 21.4006 82.6 17.1006C82.6 16.7006 82.7 16.6006 83.1 16.6006C88 16.6006 92.9 16.6006 97.8 16.6006C98.2 16.6006 98.3 16.7006 98.3 17.1006C98.3 18.3006 98.3 19.5006 98.3 20.7006C98.3 21.1006 98.2 21.1006 97.9 21.1006C94.9 21.1006 91.9 21.1006 88.8 21.1006C88.4 21.1006 88.3 21.2006 88.3 21.6006C88.3 23.3006 88.3 25.0006 88.3 26.8006C88.3 27.2006 88.4 27.3006 88.8 27.3006C91.1 27.3006 93.3 27.3006 95.6 27.3006C95.9 27.3006 96 27.4006 96 27.7006C96 28.9006 96 30.1006 96 31.3006C96 31.7006 95.9 31.8006 95.5 31.8006C93.2 31.8006 91 31.8006 88.7 31.8006C88.3 31.8006 88.2 31.9006 88.2 32.3006C88.2 34.1006 88.2 36.0006 88.2 37.8006C88.2 38.2006 88.3 38.3006 88.7 38.3006C91.7 38.3006 94.7 38.3006 97.7 38.3006C98.1 38.3006 98.2 38.4006 98.2 38.9006C98.2 40.1006 98.2 41.4006 98.2 42.6006C98.2 43.0006 98.1 43.1006 97.7 43.1006C92.8 43.1006 87.9 43.1006 83 43.1006C82.6 43.1006 82.5 43.0006 82.5 42.6006C82.6 38.3006 82.6 34.1006 82.6 29.8006Z" fill="#1863C5"/>
<path d="M105.8 56.5002C106.6 54.6002 107.4 52.8002 108.2 51.0002C108.7 49.8002 109.3 48.5002 109.8 47.2002C109.9 47.0002 110 46.8002 110.3 46.8002C112.1 46.8002 113.9 46.8002 115.7 46.8002C115.8 46.8002 115.8 46.8002 115.9 46.8002C115.8 47.0002 115.7 47.3002 115.6 47.5002C113.2 52.2002 110.9 56.9002 108.5 61.5002C108.3 61.8002 108.3 62.1002 108.3 62.5002C108.3 65.9002 108.3 69.2002 108.3 72.6002C108.3 73.0002 108.2 73.1002 107.8 73.1002C106.1 73.1002 104.4 73.1002 102.6 73.1002C102.2 73.1002 102.1 73.0002 102.1 72.6002C102.1 69.2002 102.1 65.8002 102.1 62.4002C102.1 62.1002 102 61.8002 101.9 61.5002C99.7003 56.7002 97.5003 51.9002 95.4003 47.2002C95.2003 46.8002 95.2003 46.7002 95.7003 46.7002C97.6003 46.7002 99.6003 46.7002 101.5 46.7002C101.8 46.7002 101.9 46.8002 102.1 47.1002C103.2 50.0002 104.4 52.8002 105.6 55.7002C105.6 56.1002 105.6 56.2002 105.8 56.5002Z" fill="#1863C5"/>
<path d="M127.8 16.7002C129.8 16.7002 131.8 16.7002 133.8 16.7002C134.1 16.7002 134.1 16.9002 134.2 17.1002C135.3 20.0002 136.4 22.8002 137.5 25.7002C137.6 25.9002 137.6 26.1002 137.8 26.3002C138.2 25.3002 138.6 24.4002 139 23.5002C139.9 21.4002 140.8 19.2002 141.6 17.1002C141.7 16.9002 141.7 16.8002 142 16.8002C143.7 16.8002 145.5 16.8002 147.2 16.8002C147.2 17.0002 147.1 17.2002 147 17.3002C144.8 22.1002 142.5 26.8002 140.3 31.6002C140.1 31.9002 140.1 32.2002 140.1 32.6002C140.1 36.0002 140.1 39.3002 140.1 42.7002C140.1 43.1002 140 43.2002 139.6 43.2002C138 43.2002 136.4 43.2002 134.9 43.2002C134.5 43.2002 134.4 43.1002 134.4 42.7002C134.4 39.3002 134.4 35.9002 134.4 32.5002C134.4 32.2002 134.3 31.9002 134.2 31.5002C132.2 26.7002 130.1 22.0002 128.1 17.2002C127.9 17.0002 127.8 16.9002 127.8 16.7002Z" fill="#1863C5"/>
<path d="M100.8 29.9002C100.8 25.7002 100.8 21.4002 100.8 17.2002C100.8 16.8002 100.9 16.7002 101.3 16.7002C102.9 16.7002 104.4 16.7002 106 16.7002C106.4 16.7002 106.5 16.8002 106.5 17.2002C106.5 24.0002 106.5 30.8002 106.5 37.6002C106.5 38.1002 106.6 38.2002 107.1 38.2002C109.5 38.2002 111.9 38.2002 114.3 38.2002C114.7 38.2002 114.8 38.3002 114.8 38.7002C114.8 40.1002 114.8 41.4002 114.8 42.8002C114.8 43.1002 114.7 43.2002 114.5 43.2002C110.1 43.2002 105.8 43.2002 101.4 43.2002C101 43.2002 101 43.0002 101 42.7002C100.8 38.4002 100.8 34.1002 100.8 29.9002Z" fill="#1863C5"/>
<path d="M117.7 29.9002C117.7 25.7002 117.7 21.5002 117.7 17.2002C117.7 16.8002 117.8 16.7002 118.2 16.7002C119.7 16.7002 121.2 16.7002 122.8 16.7002C123.2 16.7002 123.4 16.8002 123.4 17.3002C123.4 24.0002 123.4 30.8002 123.4 37.5002C123.4 38.2002 123.3 38.1002 124 38.1002C126.4 38.1002 128.7 38.1002 131.1 38.1002C131.5 38.1002 131.6 38.2002 131.6 38.6002C131.6 39.9002 131.6 41.3002 131.6 42.6002C131.6 43.0002 131.5 43.1002 131.1 43.1002C126.8 43.1002 122.6 43.1002 118.3 43.1002C117.9 43.1002 117.8 43.0002 117.8 42.6002C117.7 38.3002 117.7 34.1002 117.7 29.9002Z" fill="#1863C5"/>
<path d="M86.4002 6.40039C86.4002 4.40039 86.4002 2.40039 86.4002 0.400391C86.4002 0.100391 86.5002 -0.0996094 86.8002 -0.0996094C89.2002 -0.0996094 91.6002 -0.0996094 94.0002 -0.0996094C94.4002 -0.0996094 94.5002 0.000390619 94.4002 0.400391C94.4002 0.700391 94.4002 1.10039 94.4002 1.40039C94.4002 1.80039 94.3002 1.90039 93.9002 1.90039C92.3002 1.90039 90.7002 1.90039 89.1002 1.90039C88.7002 1.90039 88.5002 2.00039 88.6002 2.40039C88.6002 3.20039 88.6002 4.10039 88.6002 5.00039C88.6002 5.30039 88.7002 5.40039 89.0002 5.40039C90.3002 5.40039 91.5002 5.40039 92.8002 5.40039C93.1002 5.40039 93.3002 5.50039 93.2002 5.80039C93.1002 6.30039 93.4002 6.90039 93.1002 7.20039C92.8002 7.40039 92.3002 7.30039 91.8002 7.30039C90.8002 7.30039 89.9002 7.30039 88.9002 7.30039C88.6002 7.30039 88.5002 7.40039 88.5002 7.70039C88.5002 8.60039 88.5002 9.60039 88.5002 10.5004C88.5002 10.8004 88.6002 10.9004 88.9002 10.9004C90.6002 10.9004 92.2002 10.9004 93.9002 10.9004C94.3002 10.9004 94.4002 11.0004 94.4002 11.4004C94.4002 11.7004 94.4002 12.1004 94.4002 12.4004C94.4002 12.8004 94.3002 12.9004 93.9002 12.9004C91.5002 12.9004 89.1002 12.9004 86.7002 12.9004C86.4002 12.9004 86.2002 12.8004 86.2002 12.4004C86.4002 10.4004 86.4002 8.40039 86.4002 6.40039Z" fill="#1863C5"/>
<path d="M80.4003 9.8C81.0003 7.7 81.6003 5.7 82.2003 3.8C82.5003 2.7 82.9003 1.5 83.2003 0.4C83.3003 0.1 83.4003 0 83.7003 0C84.1003 0 84.4003 0 84.8003 0C85.1003 0 85.2003 0.1 85.1003 0.4C84.6003 2.2 84.0003 3.9 83.5003 5.7C82.8003 8 82.1003 10.2 81.5003 12.5C81.4003 12.8 81.3003 12.9 81.0003 12.9C80.5003 12.9 80.0003 12.9 79.5003 12.9C79.2003 12.9 79.1003 12.8 79.0003 12.5C77.8003 8.5 76.6003 4.5 75.4003 0.5C75.3003 0.1 75.4003 0 75.8003 0C76.3003 0 76.8003 0 77.3003 0C77.7003 0 77.8003 0.1 77.9003 0.4C78.8003 3.4 79.6003 6.4 80.5003 9.3C80.3003 9.5 80.3003 9.6 80.4003 9.8Z" fill="#1863C5"/>
<path d="M69.9002 58.6002C69.7002 58.5002 69.6002 58.6002 69.4002 58.6002C67.3002 58.6002 65.2002 58.6002 63.0002 58.6002C62.6002 58.6002 62.5002 58.5002 62.5002 58.1002C62.5002 57.2002 62.5002 57.2002 63.3002 57.2002C66.4002 57.2002 69.5002 57.2002 72.6002 57.2002C73.0002 57.2002 73.1002 57.3002 73.1002 57.7002C73.2002 58.5002 72.9002 58.9002 72.2002 59.3002C70.3002 60.2002 68.5002 61.3002 66.7002 62.3002C66.3002 62.5002 65.8002 62.7002 65.4002 63.0002H65.8002C68.1002 63.0002 70.4002 63.0002 72.7002 63.0002C73.1002 63.0002 73.2002 63.1002 73.2002 63.5002C73.2002 64.4002 73.2002 64.4002 72.3002 64.4002C69.2002 64.4002 66.1002 64.4002 63.0002 64.4002C62.7002 64.4002 62.6002 64.3002 62.5002 63.9002C62.3002 62.8002 62.7002 62.3002 63.7002 61.8002C65.7002 60.9002 67.6002 59.7002 69.7002 58.8002C69.8002 58.7002 69.9002 58.7002 69.9002 58.6002Z" fill="#1863C5"/>
<path d="M70.5001 53.6002H67.9001C66.8001 53.6002 65.7001 53.6002 64.6001 53.6002C64.3001 53.6002 64.1001 53.5002 64.2001 53.2002C64.2001 53.0002 64.2001 52.7002 64.2001 52.4002C64.2001 51.0002 64.6001 50.3002 65.9001 49.8002C67.3001 49.3002 68.7001 49.3002 70.1001 49.8002C71.2001 50.3002 71.8001 51.1002 71.8001 52.3002C71.7001 53.6002 71.7001 53.6002 70.5001 53.6002ZM73.2001 51.8002C73.1001 50.4002 72.6001 49.3002 71.4001 48.6002C69.4001 47.3002 67.2001 47.3002 65.1001 48.2002C63.4001 48.9002 62.6001 50.2002 62.6001 52.1002C62.6001 53.0002 62.6001 54.0002 62.6001 54.9002C62.6001 55.3002 62.7001 55.3002 63.0001 55.3002C64.6001 55.3002 66.3001 55.3002 67.9001 55.3002C69.5001 55.3002 71.2001 55.3002 72.8001 55.3002C73.1001 55.3002 73.2001 55.2002 73.2001 54.9002C73.2001 53.9002 73.3001 52.8002 73.2001 51.8002Z" fill="#1863C5"/>
<path d="M62.6001 6.40039C62.6001 4.40039 62.6001 2.40039 62.6001 0.400391C62.6001 0.000390619 62.7001 -0.0996094 63.0001 -0.0996094C63.6001 -0.0996094 64.1001 -0.0996094 64.7001 -0.0996094C65.1001 -0.0996094 65.1001 0.000390619 65.1001 0.400391C65.1001 3.70039 65.1001 6.90039 65.1001 10.2004C65.1001 10.6004 65.2001 10.7004 65.6001 10.7004C67.2001 10.7004 68.7001 10.7004 70.3001 10.7004C70.6001 10.7004 70.7001 10.8004 70.7001 11.1004C70.7001 11.6004 70.7001 12.0004 70.7001 12.5004C70.7001 12.7004 70.6001 12.8004 70.4001 12.8004C67.9001 12.8004 65.4001 12.8004 62.9001 12.8004C62.6001 12.8004 62.6001 12.6004 62.6001 12.4004C62.6001 10.4004 62.6001 8.40039 62.6001 6.40039Z" fill="#1863C5"/>
<path d="M69.2004 71.0006C69.2004 71.3006 69.1004 71.3006 68.9004 71.2006C67.5004 70.8006 66.0004 70.4006 64.6004 70.0006C64.8004 69.8006 65.1004 69.8006 65.3004 69.7006C66.5004 69.4006 67.7004 69.0006 68.9004 68.7006C69.1004 68.6006 69.2004 68.7006 69.2004 68.9006C69.2004 69.6006 69.2004 70.3006 69.2004 71.0006ZM73.3004 72.9006C73.3004 72.6006 73.2004 72.5006 72.9004 72.4006C72.3004 72.2006 71.7004 72.0006 71.0004 71.9006C70.8004 71.8006 70.7004 71.7006 70.7004 71.5006C70.7004 70.5006 70.7004 69.5006 70.7004 68.6006C70.7004 68.3006 70.8004 68.2006 71.0004 68.1006C71.6004 67.9006 72.3004 67.7006 72.9004 67.5006C73.1004 67.5006 73.2004 67.4006 73.2004 67.2006C73.2004 66.7006 73.2004 66.2006 73.2004 65.6006C73.0004 65.6006 72.9004 65.7006 72.8004 65.7006C69.9004 66.6006 67.0004 67.4006 64.1004 68.3006C63.6004 68.4006 63.0004 68.5006 62.7004 68.8006C62.4004 69.2006 62.7004 69.8006 62.6004 70.4006C62.6004 70.8006 62.7004 70.9006 63.1004 71.0006C66.2004 71.9006 69.2004 72.8006 72.3004 73.7006C73.3004 73.9006 73.3004 73.9006 73.3004 72.9006Z" fill="#1863C5"/>
<path d="M73.9 6.40027C73.9 8.40027 73.9 10.4003 73.9 12.4003C73.9 12.7003 73.8 12.9003 73.5 12.8003C73.1 12.8003 72.7 12.8003 72.3 12.8003C72.1 12.8003 72 12.7003 72 12.5003C72 12.4003 72 12.3003 72 12.3003C72 8.30027 72 4.40027 72 0.400267C72 0.000267059 72.1 -0.0997329 72.5 -0.0997329C72.9 -0.0997329 73.5 -0.299733 73.8 0.000267059C74.1 0.300267 73.9 0.900267 73.9 1.40027C73.9 3.10027 73.9 4.80027 73.9 6.40027Z" fill="#1863C5"/>
</g>
<defs>
<clipPath id="clip0_299_1460">
<rect width="216" height="74" fill="white"/>
</clipPath>
</defs>
</svg>
