<svg width="34" height="35" viewBox="0 0 34 35" fill="none" xmlns="http://www.w3.org/2000/svg">
<path d="M17.55 17.5L17.7465 17.3036L22.9319 12.1181C23.0048 12.0452 23.0458 11.9463 23.0458 11.8431M17.55 17.5L23.0458 11.8431M17.55 17.5L17.7465 17.6964L22.9319 22.8819C23.0048 22.9548 23.0458 23.0537 23.0458 23.1568C23.0458 23.26 23.0048 23.3589 22.9319 23.4318C22.859 23.5048 22.7601 23.5457 22.6569 23.5457C22.5538 23.5457 22.4549 23.5048 22.3819 23.4318L17.1965 18.2464L17.0001 18.05L16.8036 18.2464L11.6182 23.4318C11.5453 23.5048 11.4464 23.5457 11.3432 23.5457C11.2401 23.5457 11.1412 23.5048 11.0682 23.4318C10.9953 23.3589 10.9543 23.26 10.9543 23.1568C10.9543 23.0537 10.9953 22.9548 11.0682 22.8819L16.282 17.6681L16.4784 17.4717L16.282 17.2753L11.0965 12.0898L11.0867 12.08L11.076 12.0712C11.0396 12.0415 11.01 12.0043 10.9892 11.9621C10.9684 11.9199 10.9569 11.8738 10.9555 11.8268C10.954 11.7799 10.9626 11.7331 10.9808 11.6897C10.9989 11.6464 11.0262 11.6074 11.0606 11.5755L11.0608 11.5756L11.0682 11.5681C11.1412 11.4952 11.2401 11.4542 11.3432 11.4542C11.4464 11.4542 11.5453 11.4952 11.6182 11.5682L16.8036 16.7536L17.0001 16.95L17.1965 16.7536L22.3819 11.5682C22.4549 11.4952 22.5538 11.4542 22.6569 11.4542L22.6569 11.1767L22.6569 11.4542C22.7601 11.4542 22.859 11.4952 22.9319 11.5682C23.0048 11.6411 23.0458 11.74 23.0458 11.8431M17.55 17.5L23.3236 11.8431L23.0458 11.8431" fill="#161616" stroke="#161616" stroke-width="0.555556"/>
</svg>
