<svg width="35" height="35" viewBox="0 0 35 35" fill="none" xmlns="http://www.w3.org/2000/svg">
<g clip-path="url(#clip0_299_1274)">
<path fill-rule="evenodd" clip-rule="evenodd" d="M8.06525 19.438C7.93254 19.3077 7.79886 19.1774 7.66421 19.0481C6.29143 17.7322 4.92934 16.4149 3.65136 15.0037C3.3417 14.6619 2.76032 13.9989 2.1765 13.6577C1.75893 13.4136 1.32676 13.3116 0.931548 13.3621C0.679743 13.3942 0.311772 13.5211 0.12705 14.0038C0.0959385 14.085 0.0590023 14.2245 0.044419 14.4024C0.0210857 14.6901 0.0439217 15.2064 0.0512134 15.2779C0.153297 16.3191 0.255377 17.3147 0.442529 18.3448C0.614613 19.2927 0.732247 20.2479 0.917455 21.1943C1.19454 22.6104 1.55136 23.9734 2.07149 25.3219C2.26448 25.8226 2.82788 26.072 3.32858 25.879C3.82879 25.686 4.07864 25.1231 3.88566 24.6224C3.40684 23.3804 3.08066 22.1252 2.82594 20.821C2.64219 19.8833 2.526 18.9363 2.35538 17.9972C2.24454 17.3861 2.16578 16.7877 2.0987 16.184L2.21002 16.3089C3.51912 17.7541 4.91281 19.104 6.31865 20.4515C6.84462 20.9561 7.35261 21.4753 7.88685 21.9716C7.93011 22.0348 8.12989 22.3245 8.22808 22.4237C8.39141 22.589 8.56788 22.6813 8.72149 22.727C9.11184 22.8437 9.50803 22.8004 9.85414 22.3629C10.1132 22.0353 10.2624 21.5273 10.2513 20.9206C10.2362 20.0869 9.91977 18.9879 9.85268 18.4813C9.42782 15.2764 8.74046 12.0841 8.55768 8.85149C8.52754 8.3158 8.06817 7.9055 7.53247 7.93564C6.99678 7.96627 6.586 8.42563 6.61662 8.96133C6.80183 12.2426 7.49359 15.4835 7.92477 18.737C7.9481 18.9101 8.00352 19.1565 8.06525 19.438Z" fill="#FA5959"/>
<path fill-rule="evenodd" clip-rule="evenodd" d="M16.5601 6.15307C15.4576 6.44522 14.3532 6.69994 13.4675 7.4573C12.541 8.25015 12.0699 9.40175 11.9022 10.6851C11.6884 12.3223 11.9752 14.1797 12.1531 15.5034C12.2454 16.1888 12.2848 17.144 12.4846 17.9904C12.6567 18.7181 12.9498 19.3699 13.3965 19.8264C14.0985 20.5434 15.1757 20.6158 16.2806 20.1686C17.5571 19.6519 18.8283 18.4595 19.174 17.7643C19.4131 17.284 19.2172 16.6997 18.7365 16.4611C18.2562 16.2219 17.6724 16.4178 17.4332 16.8981C17.214 17.339 16.3608 18.0385 15.551 18.3666C15.3701 18.4395 15.1913 18.494 15.0221 18.5076C14.9341 18.5149 14.8461 18.5275 14.7863 18.4667C14.4932 18.1668 14.3902 17.6792 14.3051 17.1868C14.186 16.5004 14.1529 15.7834 14.0805 15.2438C13.921 14.0601 13.6391 12.4011 13.8302 10.9369C13.9327 10.1518 14.1646 9.42023 14.7319 8.93509C15.3901 8.37218 16.2378 8.25016 17.0579 8.03286C17.5766 7.89578 17.8863 7.363 17.7487 6.84432C17.6116 6.32564 17.0788 6.01599 16.5601 6.15307Z" fill="#FA5959"/>
<path fill-rule="evenodd" clip-rule="evenodd" d="M16.4859 11.2759C15.6318 11.7411 14.7188 12.2194 13.8035 12.548C13.2984 12.7293 13.0354 13.2865 13.2163 13.7915C13.3976 14.2966 13.9547 14.5596 14.4597 14.3782C15.4679 14.0166 16.4756 13.496 17.4158 12.9841C17.8868 12.7274 18.0613 12.1363 17.8047 11.6653C17.548 11.1937 16.9574 11.0197 16.4859 11.2759Z" fill="#FA5959"/>
<path fill-rule="evenodd" clip-rule="evenodd" d="M28.2273 11.7917C27.5176 10.9332 26.7675 10.0884 25.9752 9.31644C25.9105 9.25373 25.1114 8.59553 24.6364 8.34956C24.3161 8.18379 24.0322 8.15366 23.8659 8.1697C23.3823 8.21636 23.0872 8.47838 22.9661 8.92658C22.8505 9.3563 22.8087 9.804 22.8087 10.2609C22.0897 8.91296 21.432 7.52658 21.0324 6.06679C20.9994 5.94623 20.9726 5.88984 20.9682 5.87963C20.8336 5.58213 20.6425 5.481 20.5745 5.44114C20.24 5.24475 19.9387 5.27783 19.6844 5.39206C19.6533 5.40567 18.9679 5.70998 19.1317 6.48727C19.1448 6.54998 19.2567 6.9967 19.2892 7.17122C19.3179 7.32288 19.3801 7.45948 19.4671 7.57517C20.137 9.4992 21.1617 11.3168 22.1451 13.0916C22.3576 13.4751 22.5233 13.8703 22.6327 14.2947C22.6648 14.4186 22.6779 14.6991 22.7061 14.8367C22.7542 15.0695 22.8495 15.2256 22.9103 15.3053C23.2262 15.7204 23.6156 15.7628 23.9748 15.6563C24.1284 15.6111 24.4361 15.5075 24.6233 15.0618C25.0443 14.0604 24.9966 12.9545 24.8746 11.8403C24.8387 11.5107 24.7939 11.1811 24.7667 10.8554C25.6315 11.7149 26.4409 12.6628 27.2016 13.6102C27.2853 13.7143 28.1321 14.6612 28.3571 14.8022C28.9201 15.1561 29.3571 14.8902 29.5442 14.7317C29.8296 14.4896 30.0542 14.074 30.1455 13.5446C30.2632 12.8597 30.1703 11.9171 30.1611 11.5379C30.0994 8.98586 30.007 6.3181 29.4339 3.8263C29.3138 3.30324 28.7917 2.97655 28.2687 3.09662C27.7456 3.21669 27.4189 3.73928 27.539 4.26185C28.083 6.62824 28.1583 9.16234 28.2171 11.5851C28.2186 11.641 28.2225 11.711 28.2273 11.7917Z" fill="#FA5959"/>
<path fill-rule="evenodd" clip-rule="evenodd" d="M32.1124 3.18003C32.4648 4.88385 32.8177 6.5721 33.0482 8.32405C33.1182 8.85634 33.6067 9.23163 34.139 9.16163C34.6708 9.09163 35.0461 8.60308 34.9761 8.07079C34.6514 5.59988 34.0894 3.25392 33.6189 0.816563C33.4375 -0.125521 32.5421 0.00622861 32.4872 0.0159508C32.3661 0.0373397 31.7065 0.177824 31.6846 0.950255C31.6832 0.997408 31.7148 1.33086 31.7201 1.46016C31.7318 1.7562 31.7259 2.04545 31.7108 2.34198C31.6933 2.68372 31.8543 2.99337 32.1124 3.18003Z" fill="#FA5959"/>
<path fill-rule="evenodd" clip-rule="evenodd" d="M34.6283 13.2272C34.727 12.9268 34.6769 12.5836 34.465 12.3177C34.1301 11.8982 33.518 11.8297 33.0985 12.1646C32.7111 12.4738 32.6387 12.8505 32.6907 13.3113C32.7509 13.8446 33.2332 14.2286 33.7664 14.1678C34.254 14.1129 34.6167 13.7046 34.6283 13.2272Z" fill="#FA5959"/>
<path fill-rule="evenodd" clip-rule="evenodd" d="M16.2753 31.9814C16.1762 31.7714 16.0965 31.6056 16.0775 31.5701C15.1743 29.8809 14.1943 28.214 13.1273 26.623C12.8283 26.1772 12.2241 26.0581 11.7783 26.3571C11.3326 26.656 11.2135 27.2603 11.5124 27.7061C12.5435 29.2431 13.4899 30.8546 14.363 32.487C14.4296 32.6114 14.8734 33.7173 15.1903 34.1786C15.4776 34.5962 15.8383 34.7454 16.0449 34.7761C16.3731 34.8247 16.8864 34.707 17.303 34.1509C17.847 33.4252 18.5523 31.4861 18.6685 31.1643C18.8814 30.5722 19.0617 29.9509 19.229 29.3467C19.5459 28.2004 19.7282 27.0338 19.891 25.8583C19.9649 25.3265 19.5931 24.8356 19.0613 24.7617C18.5299 24.6883 18.0385 25.0602 17.9651 25.5915C17.8139 26.6818 17.6491 27.7649 17.355 28.828C17.2004 29.3856 17.0351 29.9597 16.8387 30.5061C16.7794 30.6699 16.549 31.3465 16.2753 31.9814Z" fill="#FA5959"/>
</g>
<defs>
<clipPath id="clip0_299_1274">
<rect width="35" height="35" fill="white"/>
</clipPath>
</defs>
</svg>
