<svg width="24" height="25" viewBox="0 0 24 25" fill="none" xmlns="http://www.w3.org/2000/svg">
<g opacity="0.2">
<path fill-rule="evenodd" clip-rule="evenodd" d="M4.45711 4.89645C4.65237 4.70118 4.96895 4.70118 5.16421 4.89645L14.9066 14.6388L14.9506 14.6797C14.9676 14.6955 14.9834 14.7123 14.9979 14.7301L19.6599 19.3921C19.8552 19.5874 19.8552 19.904 19.6599 20.0992C19.4646 20.2945 19.1481 20.2945 18.9528 20.0992L16.8552 18.0016C15.3752 18.995 13.6335 19.75 11.75 19.75C8.78688 19.75 6.16489 17.8825 4.33135 16.1094C3.40466 15.2133 2.65638 14.3189 2.13989 13.6491C1.88134 13.3138 1.68006 13.0337 1.54277 12.8364C1.4741 12.7377 1.42139 12.6597 1.38546 12.6057C1.36749 12.5788 1.35371 12.5578 1.34423 12.5433L1.33325 12.5263L1.3302 12.5216L1.32929 12.5202L1.32899 12.5197C1.32888 12.5195 1.32879 12.5194 1.75 12.25C1.32879 11.9806 1.32884 11.9805 1.32891 11.9804L1.32907 11.9802L1.32953 11.9794L1.33099 11.9772L1.33602 11.9694L1.3545 11.9411C1.37052 11.9166 1.39394 11.8813 1.42449 11.836C1.4856 11.7455 1.57533 11.6151 1.69179 11.4528C1.92459 11.1282 2.26477 10.6749 2.69708 10.1559C3.48066 9.21524 4.57615 8.04738 5.89252 7.03897L4.45711 5.60355C4.26184 5.40829 4.26184 5.09171 4.45711 4.89645ZM6.53716 7.80493C5.28428 8.7585 4.22865 9.87971 3.46544 10.796C3.05097 11.2935 2.72551 11.7273 2.50438 12.0356C2.4467 12.116 2.39615 12.1879 2.35302 12.25C2.35648 12.255 2.36 12.26 2.36356 12.2652C2.49268 12.4507 2.68434 12.7175 2.93181 13.0384C3.42738 13.6811 4.14356 14.5367 5.02651 15.3906C6.81226 17.1175 9.19027 18.75 11.75 18.75C13.2747 18.75 14.7388 18.1712 16.0596 17.3274L14.5249 15.7927C13.7606 16.3921 12.7968 16.75 11.75 16.75C9.26472 16.75 7.25 14.7352 7.25 12.25C7.25 11.2034 7.60782 10.2394 8.20723 9.475L6.53716 7.80493ZM8.81317 10.3451C8.45677 10.8933 8.25 11.5471 8.25 12.25C8.25 14.1829 9.817 15.75 11.75 15.75C12.5208 15.75 13.2329 15.5012 13.8112 15.079L12.5133 13.7811L8.81317 10.3451ZM1.75 12.25L1.32879 11.9806C1.22374 12.1448 1.22374 12.3552 1.32879 12.5194L1.75 12.25ZM11.75 5.75C10.9881 5.75 10.2413 5.89432 9.51838 6.14499C9.25747 6.23546 8.97263 6.0973 8.88216 5.8364C8.79169 5.57549 8.92985 5.29065 9.19075 5.20018C10.0028 4.91859 10.8606 4.75 11.75 4.75C14.7131 4.75 17.3351 6.61746 19.1686 8.39057C20.0953 9.28672 20.8436 10.1811 21.3601 10.8509C21.6187 11.1862 21.8199 11.4663 21.9572 11.6636C22.0259 11.7623 22.0786 11.8403 22.1145 11.8943C22.1325 11.9212 22.1463 11.9422 22.1558 11.9567L22.1667 11.9737L22.1698 11.9784L22.1707 11.9798L22.171 11.9803C22.1711 11.9805 22.1712 11.9806 21.75 12.25C22.1712 12.5194 22.1712 12.5195 22.1711 12.5195L22.171 12.5197L22.1708 12.5201L22.1699 12.5214L22.1672 12.5257L22.1574 12.5408C22.1489 12.5538 22.1366 12.5725 22.1206 12.5966C22.0886 12.6448 22.0416 12.7146 21.9804 12.803C21.8581 12.9797 21.6786 13.2314 21.4476 13.5348C20.9861 14.1411 20.3166 14.9576 19.4835 15.7983C19.2892 15.9945 18.9726 15.9959 18.7764 15.8015C18.5803 15.6072 18.5788 15.2906 18.7732 15.0944C19.5684 14.292 20.2096 13.5103 20.6519 12.9292C20.8657 12.6483 21.0324 12.415 21.147 12.25C21.1435 12.245 21.14 12.24 21.1364 12.2348C21.0073 12.0493 20.8157 11.7825 20.5682 11.4616C20.0726 10.8189 19.3564 9.96328 18.4735 9.10943C16.6877 7.38254 14.3097 5.75 11.75 5.75ZM21.75 12.25L22.1712 12.5194C22.2763 12.3552 22.2763 12.1448 22.1712 11.9806L21.75 12.25Z" fill="#161616"/>
</g>
</svg>
