<svg width="32" height="32" viewBox="0 0 32 32" fill="none" xmlns="http://www.w3.org/2000/svg">
<rect width="32" height="32" rx="16" transform="matrix(1 0 0 -1 0 32)" fill="#FA5959" fill-opacity="0.12"/>
<path d="M13.5332 23.9503C14.3332 24.192 15.1415 24.3337 15.9998 24.3337C18.21 24.3337 20.3296 23.4557 21.8924 21.8929C23.4552 20.3301 24.3332 18.2105 24.3332 16.0003C24.3332 14.906 24.1176 13.8223 23.6988 12.8113C23.28 11.8002 22.6662 10.8816 21.8924 10.1078C21.1186 9.33395 20.1999 8.72012 19.1889 8.30133C18.1778 7.88254 17.0942 7.66699 15.9998 7.66699C14.9055 7.66699 13.8219 7.88254 12.8108 8.30133C11.7998 8.72012 10.8811 9.33395 10.1073 10.1078C8.54448 11.6706 7.6665 13.7902 7.6665 16.0003C7.6665 19.542 9.8915 22.5837 13.0332 23.7837C12.9582 23.1337 12.8832 22.0587 13.0332 21.317L13.9915 17.2003C13.9915 17.2003 13.7498 16.717 13.7498 15.9503C13.7498 14.8003 14.4665 13.942 15.2832 13.942C15.9998 13.942 16.3332 14.467 16.3332 15.142C16.3332 15.8587 15.8582 16.8837 15.6165 17.867C15.4748 18.6837 16.0498 19.4003 16.8832 19.4003C18.3665 19.4003 19.5165 17.817 19.5165 15.5837C19.5165 13.5837 18.0832 12.217 16.0248 12.217C13.6748 12.217 12.2915 13.967 12.2915 15.8087C12.2915 16.5253 12.5248 17.2503 12.9082 17.7253C12.9832 17.7753 12.9832 17.842 12.9582 17.967L12.7165 18.8753C12.7165 19.017 12.6248 19.067 12.4832 18.967C11.4165 18.5003 10.7998 16.9837 10.7998 15.7587C10.7998 13.1253 12.6665 10.7337 16.2665 10.7337C19.1332 10.7337 21.3665 12.792 21.3665 15.5253C21.3665 18.392 19.5915 20.692 17.0498 20.692C16.2415 20.692 15.4498 20.2587 15.1665 19.7503L14.6082 21.7253C14.4165 22.442 13.8915 23.4003 13.5332 23.9753L13.5332 23.9503Z" fill="#FA5959"/>
</svg>
