<svg width="216" height="74" viewBox="0 0 216 74" fill="none" xmlns="http://www.w3.org/2000/svg">
<g clip-path="url(#clip0_299_1449)">
<path d="M138.5 36.3002C138.7 35.8002 139 35.4002 139.2 34.9002C141 31.4002 142.7 28.0002 144.5 24.5002C144.6 24.3002 144.8 24.2002 145.1 24.2002C146.5 24.2002 147.9 24.2002 149.3 24.2002C149.6 24.2002 149.7 24.3002 149.7 24.6002C149.7 31.9002 149.7 39.2002 149.7 46.5002C149.7 46.8002 149.6 46.9002 149.3 46.9002C147.9 46.9002 146.5 46.9002 145.1 46.9002C144.7 46.9002 144.7 46.8002 144.7 46.4002C144.7 42.9002 144.7 39.4002 144.7 35.9002V35.6002H144.6C142.6 39.3002 140.6 43.1002 138.5 46.9002C136.6 43.1002 134.7 39.4002 132.8 35.7002H132.7V36.2002C132.7 39.6002 132.7 43.0002 132.7 46.4002C132.7 46.8002 132.6 46.9002 132.2 46.9002C130.9 46.9002 129.5 46.9002 128.2 46.9002C127.7 46.9002 127.6 46.8002 127.6 46.4002C127.6 40.6002 127.6 34.7002 127.6 28.9002C127.6 27.5002 127.6 26.1002 127.6 24.7002C127.6 24.3002 127.7 24.2002 128.1 24.2002C129.4 24.2002 130.6 24.2002 131.9 24.2002C132.3 24.2002 132.4 24.3002 132.6 24.6002C134.5 28.4002 136.4 32.1002 138.3 35.9002C138.3 36.0002 138.3 36.2002 138.5 36.3002Z" fill="#1863C5"/>
<path d="M13.5001 33.0996C12.9001 33.2996 12.2001 33.4996 11.5001 33.4996C10.7001 33.4996 9.8001 33.4996 9.0001 33.4996C8.1001 33.4996 7.2001 33.4996 6.3001 33.4996C5.9001 33.4996 5.9001 33.3996 5.9001 33.0996C5.9001 31.8996 5.9001 30.5996 5.9001 29.3996C5.9001 29.0996 6.0001 28.9996 6.4001 28.9996C8.4001 28.9996 10.3001 28.9996 12.3001 28.9996C13.1001 28.9996 13.9001 29.1996 14.4001 29.7996C15.4001 30.8996 15.0001 32.4996 13.5001 33.0996ZM20.5001 46.4996C20.5001 46.3996 20.4001 46.2996 20.4001 46.1996C19.1001 43.2996 17.9001 40.3996 16.6001 37.4996C16.5001 37.2996 16.4001 37.0996 16.7001 36.8996C18.0001 36.0996 18.8001 34.8996 19.4001 33.5996C20.5001 30.9996 19.9001 27.9996 17.9001 26.1996C16.2001 24.6996 14.2001 24.0996 11.9001 24.0996C8.3001 24.0996 4.7001 24.0996 1.1001 24.0996C0.700098 24.0996 0.600098 24.1996 0.600098 24.5996C0.600098 28.1996 0.600098 31.7996 0.600098 35.3996C0.600098 38.9996 0.600098 42.6996 0.600098 46.2996C0.600098 46.6996 0.700098 46.7996 1.1001 46.7996C2.5001 46.7996 3.9001 46.7996 5.3001 46.7996C5.8001 46.7996 5.9001 46.6996 5.9001 46.2996C5.9001 43.7996 5.9001 41.2996 5.9001 38.7996C5.9001 38.3996 6.0001 38.2996 6.4001 38.2996C7.5001 38.2996 8.7001 38.2996 9.8001 38.2996C11.1001 38.2996 11.1001 38.2996 11.6001 39.4996C12.6001 41.8996 13.7001 44.1996 14.7001 46.5996C14.8001 46.7996 14.9001 46.8996 15.2001 46.8996C16.8001 46.8996 18.4001 46.8996 20.0001 46.8996C20.6001 46.8996 20.6001 46.7996 20.5001 46.4996Z" fill="#1863C5"/>
<path d="M24.4999 35.5002C24.4999 31.9002 24.4999 28.3002 24.4999 24.7002C24.4999 24.3002 24.5999 24.2002 24.9999 24.2002C30.6999 24.2002 36.3999 24.2002 41.9999 24.2002C42.3999 24.2002 42.4999 24.3002 42.4999 24.7002C42.4999 25.9002 42.4999 27.1002 42.4999 28.3002C42.4999 28.7002 42.3999 28.8002 41.8999 28.8002C37.9999 28.8002 34.1999 28.8002 30.2999 28.8002C29.7999 28.8002 29.6999 28.9002 29.6999 29.4002C29.6999 30.2002 29.6999 31.1002 29.6999 31.9002C29.6999 32.3002 29.7999 32.3002 30.1999 32.3002C32.1999 32.3002 34.1999 32.3002 36.1999 32.3002C36.5999 32.3002 36.6999 32.4002 36.6999 32.8002C36.6999 34.0002 36.6999 35.3002 36.6999 36.5002C36.6999 36.9002 36.5999 37.0002 36.1999 37.0002C34.1999 37.0002 32.2999 37.0002 30.2999 37.0002C29.8999 37.0002 29.6999 37.1002 29.6999 37.5002C29.6999 38.9002 29.6999 40.3002 29.6999 41.7002C29.6999 42.1002 29.7999 42.2002 30.1999 42.2002C34.1999 42.2002 38.1999 42.2002 42.1999 42.2002C42.5999 42.2002 42.7999 42.3002 42.7999 42.7002C42.7999 43.9002 42.7999 45.1002 42.7999 46.3002C42.7999 46.8002 42.5999 46.8002 42.1999 46.8002C36.4999 46.8002 30.6999 46.8002 24.9999 46.8002C24.4999 46.8002 24.3999 46.7002 24.3999 46.2002C24.4999 42.7002 24.4999 39.1002 24.4999 35.5002Z" fill="#1863C5"/>
<path d="M198.6 35.4996C198.6 31.8996 198.6 28.1996 198.6 24.5996C198.6 24.1996 198.7 24.0996 199.1 24.0996C204.7 24.0996 210.3 24.0996 215.9 24.0996C216.3 24.0996 216.4 24.1996 216.4 24.5996C216.4 25.7996 216.4 27.0996 216.4 28.2996C216.4 28.6996 216.3 28.7996 215.9 28.7996C212.1 28.7996 208.3 28.7996 204.4 28.7996C203.9 28.7996 203.8 28.8996 203.8 29.3996C203.8 30.1996 203.8 30.9996 203.8 31.7996C203.8 32.1996 203.9 32.2996 204.3 32.2996C206.2 32.2996 208.1 32.2996 210.1 32.2996C210.5 32.2996 210.6 32.3996 210.6 32.7996C210.6 34.0996 210.6 35.2996 210.6 36.5996C210.6 36.8996 210.5 36.9996 210.2 36.9996C208.2 36.9996 206.3 36.9996 204.3 36.9996C203.9 36.9996 203.8 37.0996 203.8 37.4996C203.8 38.8996 203.8 40.2996 203.8 41.5996C203.8 41.9996 203.9 42.0996 204.4 42.0996C208.3 42.0996 212.2 42.0996 216.1 42.0996C216.6 42.0996 216.7 42.2996 216.7 42.6996C216.7 43.8996 216.7 45.1996 216.7 46.3996C216.7 46.6996 216.6 46.7996 216.3 46.7996C210.6 46.7996 204.8 46.7996 199.1 46.7996C198.7 46.7996 198.6 46.5996 198.6 46.2996C198.6 42.7996 198.6 39.0996 198.6 35.4996Z" fill="#1863C5"/>
<path d="M59.6001 37.0996C58.2001 37.0996 56.7001 37.0996 55.3001 37.0996C55.1001 37.0996 54.9001 37.0996 55.0001 36.7996C55.8001 35.0996 56.6001 33.2996 57.4001 31.4996C58.0001 32.6996 58.4001 33.7996 58.9001 34.7996C59.2001 35.3996 59.5001 36.0996 59.8001 36.6996C60.0001 37.0996 59.9001 37.0996 59.6001 37.0996ZM69.7001 46.1996C68.7001 44.0996 67.8001 41.8996 66.8001 39.7996C64.5001 34.6996 62.2001 29.5996 59.9001 24.4996C59.8001 24.1996 59.6001 24.0996 59.2001 24.0996C58.1001 24.0996 57.0001 24.0996 56.0001 24.0996C55.5001 24.0996 55.3001 24.2996 55.2001 24.5996C54.0001 27.2996 52.8001 29.8996 51.5001 32.5996C49.4001 37.1996 47.3001 41.7996 45.2001 46.3996C45.0001 46.6996 45.1001 46.7996 45.5001 46.7996C47.0001 46.7996 48.5001 46.7996 50.0001 46.7996C50.4001 46.7996 50.5001 46.6996 50.6001 46.3996C51.2001 44.9996 51.9001 43.5996 52.6001 42.1996C52.7001 41.8996 52.9001 41.7996 53.3001 41.7996C56.1001 41.7996 58.9001 41.7996 61.8001 41.7996C62.1001 41.7996 62.3001 41.8996 62.4001 42.1996C63.1001 43.5996 63.7001 44.9996 64.4001 46.3996C64.5001 46.6996 64.7001 46.7996 65.1001 46.7996C65.8001 46.7996 66.6001 46.7996 67.3001 46.7996H69.3001C70.0001 46.8996 70.0001 46.8996 69.7001 46.1996Z" fill="#1863C5"/>
<path d="M168.4 31.8002C168.2 32.4002 167.8 32.8002 167.1 33.1002C166.6 33.3002 166 33.4002 165.5 33.4002C163.5 33.4002 161.5 33.4002 159.5 33.4002C159.2 33.4002 159.1 33.3002 159.1 33.0002C159.1 31.7002 159.1 30.5002 159.1 29.2002C159.1 28.9002 159.2 28.8002 159.6 28.8002C160.6 28.8002 161.6 28.8002 162.9 28.8002C163.9 28.9002 165.2 28.7002 166.4 28.9002C168 29.3002 168.8 30.5002 168.4 31.8002ZM170.9 25.8002C169.4 24.7002 167.7 24.2002 165.8 24.2002C162.1 24.2002 158.3 24.2002 154.6 24.2002C154.2 24.2002 154.2 24.4002 154.2 24.7002C154.2 28.3002 154.2 31.9002 154.2 35.5002C154.2 39.1002 154.2 42.8002 154.2 46.4002C154.2 46.8002 154.3 46.9002 154.7 46.9002C156.1 46.9002 157.5 46.9002 158.9 46.9002C159.3 46.9002 159.5 46.8002 159.4 46.4002C159.4 43.9002 159.4 41.4002 159.4 38.9002C159.4 38.4002 159.6 38.3002 160 38.3002C161.7 38.3002 163.5 38.3002 165.2 38.3002C166.6 38.3002 167.9 38.1002 169.2 37.6002C174.1 35.5002 175.1 29.0002 170.9 25.8002Z" fill="#1863C5"/>
<path d="M105.2 47.0998C102 46.9998 99.1002 46.0999 96.7002 43.8999C96.1002 43.2999 95.4002 42.6998 94.8002 42.0998C94.6002 41.8998 94.5002 41.7998 94.8002 41.5998C96.0002 40.8998 97.1002 40.0999 98.3002 39.3999C98.5002 39.1999 98.7002 39.2999 98.9002 39.4999C99.6002 40.2999 100.4 41.0998 101.3 41.6999C103.2 42.8999 105.3 42.9998 107.5 42.2998C107.9 42.1998 108.3 41.8998 108.6 41.5998C109.6 40.5998 109.4 39.2998 108.1 38.5998C107.2 38.0998 106.1 37.8998 105.1 37.5998C103.7 37.2998 102.3 36.9999 101 36.4999C98.3002 35.3998 96.8002 33.3998 96.8002 30.7998C96.8002 28.1998 98.4002 25.8998 101.1 24.8998C104.5 23.6998 107.7 24.1998 110.7 25.7998C111.9 26.3998 112.9 27.2998 113.8 28.2998C114 28.5998 114 28.6998 113.7 28.8998C112.7 29.6998 111.7 30.4998 110.7 31.2998C110.5 31.4998 110.4 31.4998 110.1 31.2998C109.5 30.6998 108.8 30.1998 108.1 29.7998C106.6 28.8998 105 28.6999 103.3 29.0999C103 29.1999 102.7 29.2998 102.4 29.4998C101.3 30.0998 101.4 31.3998 102.4 31.9998C103.2 32.4998 104.2 32.5998 105 32.7998C106.6 33.2998 108.2 33.6999 109.8 34.1999C112.2 34.8999 114 37.2999 114.1 39.6999C114.2 43.1999 112 45.8998 108.2 46.9998C107.7 47.0998 107.3 47.1998 106.8 47.2998C106.3 46.9998 105.8 47.0998 105.2 47.0998Z" fill="#1863C5"/>
<path d="M72.8998 35.5002C72.8998 31.9002 72.8998 28.3002 72.8998 24.7002C72.8998 24.3002 72.9998 24.2002 73.3998 24.2002C74.7998 24.2002 76.1998 24.2002 77.6998 24.2002C78.1998 24.2002 78.1998 24.3002 78.1998 24.7002C78.1998 30.3002 78.1998 36.0002 78.1998 41.6002C78.1998 42.2002 78.1998 42.2002 78.7998 42.2002C82.7998 42.2002 86.6998 42.2002 90.6998 42.2002C91.0998 42.2002 91.2998 42.3002 91.1998 42.7002C91.1998 43.9002 91.1998 45.2002 91.1998 46.4002C91.1998 46.8002 91.0998 46.8002 90.6998 46.8002C84.8998 46.8002 79.0998 46.8002 73.2998 46.8002C72.8998 46.8002 72.7998 46.7002 72.7998 46.3002C72.8998 42.8002 72.8998 39.1002 72.8998 35.5002Z" fill="#1863C5"/>
<path d="M176.9 35.4996C176.9 31.8996 176.9 28.2996 176.9 24.6996C176.9 24.1996 177.1 24.0996 177.5 24.0996C178.8 24.0996 180.2 24.0996 181.5 24.0996C181.9 24.0996 182.1 24.1996 182.1 24.5996C182.1 30.1996 182.1 35.8996 182.1 41.4996C182.1 41.8996 182.2 42.0996 182.7 42.0996C186.6 42.0996 190.5 42.0996 194.4 42.0996C194.9 42.0996 195 42.1996 195 42.6996C195 43.8996 195 45.1996 195 46.3996C195 46.7996 194.9 46.7996 194.5 46.7996C188.8 46.7996 183.1 46.7996 177.4 46.7996C177 46.7996 176.9 46.6996 176.9 46.2996C176.9 42.6996 176.9 39.0996 176.9 35.4996Z" fill="#1863C5"/>
<path d="M123.2 35.4996C123.2 39.0996 123.2 42.6996 123.2 46.2996C123.2 46.6996 123.1 46.7996 122.7 46.7996C121.3 46.7996 119.9 46.7996 118.5 46.7996C118.2 46.7996 118 46.7996 118 46.3996C118 39.0996 118 31.7996 118 24.4996C118 24.1996 118.1 24.0996 118.4 24.0996C119.8 24.0996 121.2 24.0996 122.6 24.0996C123 24.0996 123.1 24.1996 123.1 24.5996C123.2 28.2996 123.2 31.8996 123.2 35.4996Z" fill="#1863C5"/>
</g>
<defs>
<clipPath id="clip0_299_1449">
<rect width="216" height="74" fill="white"/>
</clipPath>
</defs>
</svg>
