<svg width="81" height="80" viewBox="0 0 81 80" fill="none" xmlns="http://www.w3.org/2000/svg">
<path d="M69.2827 67.32L69.2871 67.3243C69.5684 67.5995 69.6499 67.8857 69.6308 68.143C69.6108 68.4147 69.4744 68.6945 69.2511 68.9162C69.028 69.1378 68.7448 69.2747 68.4666 69.2947C68.202 69.3137 67.9074 69.2304 67.6237 68.9466L55.1237 56.4466L54.7949 56.1179L54.4432 56.4219C49.864 60.3796 43.8791 62.7669 37.4035 62.7669C23.0463 62.7669 11.3701 51.0907 11.3701 36.7335C11.3701 22.3763 23.0463 10.7002 37.4035 10.7002C51.7606 10.7002 63.4368 22.3763 63.4368 36.7335V36.7342C63.4451 43.1495 61.0674 49.3387 56.7658 54.0983L56.4475 54.4505L56.7828 54.7866L69.2828 67.3199L69.2827 67.32ZM37.4001 13.0335C24.3578 13.0335 13.7001 23.6569 13.7001 36.7335C13.7001 49.8101 24.3578 60.4335 37.4001 60.4335C50.4763 60.4335 61.1001 49.8097 61.1001 36.7335C61.1001 23.6574 50.4763 13.0335 37.4001 13.0335Z" fill="#CCCCCC" stroke="#CCCCCC"/>
</svg>
