<svg width="27" height="27" viewBox="0 0 27 27" fill="none" xmlns="http://www.w3.org/2000/svg">
<path fill-rule="evenodd" clip-rule="evenodd" d="M10.6949 5.32075C10.6226 4.89164 10.5681 4.4674 10.5329 4.04312C10.4799 3.40669 10.5126 2.76539 10.4938 2.12896C10.4856 1.85896 10.4533 1.15504 10.4664 1.05379C10.5845 0.171473 11.2966 0.0364566 11.5049 0.0123495C11.6057 -0.00211481 12.6403 -0.117777 12.8636 1.02972C13.1374 2.43276 13.2252 3.84542 13.1283 5.22917C13.3544 6.4056 13.7411 7.57718 14.2517 8.63789C16.2834 12.8566 20.155 13.2665 24.3497 13.2279C24.9948 13.2183 25.5304 13.7245 25.5642 14.3658C25.5979 15.0118 25.1177 15.5711 24.4755 15.629C22.1309 15.8556 17.9709 17.736 16.5327 19.6935C16.2318 20.1033 16.0568 21.0917 15.8254 22.0608C15.5023 23.406 15.1181 24.7367 14.6875 25.2959C14.6229 25.3827 13.8375 26.2699 13.6032 26.4001C13.04 26.7086 12.5892 26.5302 12.3332 26.3663C12.0772 26.2024 11.7874 25.8793 11.6717 25.3442C11.5507 24.7849 11.6529 23.6373 11.6341 23.3915C11.5656 22.4995 11.3873 20.7493 11.0232 19.245C10.827 18.435 10.6178 17.6877 10.2716 17.3165C8.99004 15.9424 6.94093 16.1449 5.21535 16.3715C5.01718 16.3956 4.81903 16.4245 4.62135 16.4486C3.91887 16.656 3.17297 16.8102 2.38467 16.9018C1.19426 17.0416 0.998521 15.9472 0.987914 15.8749C0.965735 15.7158 0.88328 14.8961 1.78055 14.5683C1.87842 14.5345 2.60068 14.3754 2.87888 14.3127C3.26652 14.2259 3.65849 14.1585 4.05192 14.0958C8.1159 12.8326 10.3232 9.28396 10.6949 5.32075ZM12.0897 9.70347C13.6239 12.876 15.9522 14.4092 18.712 15.1034H18.7115C16.9883 16.0051 15.4208 17.1333 14.5901 18.2663C14.2748 18.6954 13.9855 19.5584 13.7247 20.5275C13.5834 19.6259 13.3925 18.6665 13.1403 17.8468C12.8535 16.9115 12.4672 16.1353 12.0362 15.6724C11.204 14.7804 10.1597 14.2838 9.03679 14.0379C10.381 12.847 11.4003 11.362 12.0897 9.70347Z" fill="#FA5959"/>
</svg>
