<svg width="21" height="21" viewBox="0 0 21 21" fill="none" xmlns="http://www.w3.org/2000/svg">
<g clip-path="url(#clip0_297_1230)">
<path fill-rule="evenodd" clip-rule="evenodd" d="M2.6741 9.28828C3.61102 8.95443 4.59696 8.51073 5.35727 7.86834C6.26027 7.10534 6.62751 6.12267 6.87413 5.08828C7.19074 3.75936 7.31725 2.34373 7.70118 1.01265C7.84333 0.518343 8.1169 0.331493 8.23428 0.24857C8.53097 0.0391084 8.83087 -0.0168805 9.11303 0.00411945C9.44741 0.0283502 9.90674 0.15488 10.2088 0.715418C10.2519 0.795649 10.3079 0.917886 10.3456 1.08535C10.373 1.20812 10.3908 1.59203 10.4199 1.75034C10.4926 2.14019 10.5534 2.53005 10.6105 2.92205C10.8006 4.22674 10.9099 5.33488 11.5103 6.53349C12.325 8.16072 13.1413 9.15634 14.2484 9.59734C15.3188 10.0238 16.5987 9.94359 18.234 9.6092C18.3897 9.57151 18.5436 9.5392 18.696 9.51281C19.417 9.38681 20.1063 9.86012 20.2479 10.5784C20.3895 11.2962 19.9313 11.9957 19.2167 12.1534C19.0676 12.1863 18.9206 12.2175 18.7752 12.246C16.5653 12.7931 14.0071 14.7456 12.5204 16.4552C12.0622 16.9824 11.3913 18.4561 10.7069 19.3963C10.2018 20.0898 9.63426 20.547 9.15772 20.7085C8.83842 20.8173 8.56919 20.8006 8.34681 20.7457C8.02373 20.666 7.75559 20.4909 7.5499 20.2126C7.4379 20.0602 7.33395 19.8561 7.28441 19.5955C7.26072 19.47 7.25804 19.1513 7.25858 19.007C7.11912 18.5272 6.94842 18.0587 6.82404 17.5746C6.52735 16.4196 5.94526 15.6884 5.25388 14.7224C4.60718 13.8183 3.91259 13.2503 2.89436 12.7969C2.7619 12.7646 1.69305 12.5029 1.31559 12.3526C0.764204 12.1324 0.50142 11.7636 0.406113 11.5649C0.244036 11.2278 0.227358 10.9333 0.259666 10.6877C0.307589 10.3254 0.470205 10.0152 0.758821 9.76482C0.93759 9.6092 1.20467 9.45788 1.56221 9.38411C1.83844 9.3265 2.57125 9.29312 2.6741 9.28828ZM8.94449 7.4058C8.99403 7.51618 9.04681 7.62711 9.10281 7.73911C10.296 10.1223 11.6303 11.4529 13.2522 12.0985L13.3066 12.1195C12.2216 12.925 11.2394 13.8253 10.4888 14.6885C10.1797 15.0439 9.7705 15.7821 9.32842 16.5392C8.92673 15.2334 8.26981 14.3105 7.44381 13.1555C6.81273 12.274 6.1515 11.6107 5.33896 11.0701C5.9695 10.7464 6.57096 10.3674 7.09488 9.92474C7.96719 9.18759 8.54388 8.33357 8.94449 7.4058Z" fill="#FA5959"/>
</g>
<defs>
<clipPath id="clip0_297_1230">
<rect width="21" height="21" fill="white"/>
</clipPath>
</defs>
</svg>
