<svg width="32" height="32" viewBox="0 0 32 32" fill="none" xmlns="http://www.w3.org/2000/svg">
<rect width="32" height="32" rx="16" transform="matrix(1 0 0 -1 0 32)" fill="#FA5959" fill-opacity="0.12"/>
<path d="M24.7165 10.9997C24.0749 11.2913 23.3832 11.483 22.6665 11.5747C23.3999 11.133 23.9665 10.433 24.2332 9.59134C23.5415 10.008 22.7749 10.2997 21.9665 10.4663C21.3082 9.74967 20.3832 9.33301 19.3332 9.33301C17.3749 9.33301 15.7749 10.933 15.7749 12.908C15.7749 13.1913 15.8082 13.4663 15.8665 13.7247C12.8999 13.5747 10.2582 12.1497 8.49987 9.99134C8.19154 10.5163 8.01654 11.133 8.01654 11.783C8.01654 13.0247 8.64154 14.1247 9.6082 14.7497C9.01654 14.7497 8.46654 14.583 7.9832 14.333L7.9832 14.358C7.9832 16.0913 9.21654 17.5413 10.8499 17.8663C10.3255 18.0098 9.77495 18.0298 9.24154 17.9247C9.46788 18.6351 9.91115 19.2567 10.5091 19.7021C11.107 20.1476 11.8294 20.3944 12.5749 20.408C11.3112 21.4084 9.74487 21.9491 8.1332 21.9413C7.84987 21.9413 7.56654 21.9247 7.2832 21.8913C8.86654 22.908 10.7499 23.4997 12.7665 23.4997C19.3332 23.4997 22.9415 18.0497 22.9415 13.3247C22.9415 13.1663 22.9415 13.0163 22.9332 12.858C23.6332 12.358 24.2332 11.7247 24.7165 10.9997Z" fill="#FA5959"/>
</svg>
