<svg width="20" height="24" viewBox="0 0 20 24" fill="none" xmlns="http://www.w3.org/2000/svg">
<path fill-rule="evenodd" clip-rule="evenodd" d="M5.1665 5.83333C5.1665 3.16396 7.33046 1 9.99984 1C12.6692 1 14.8332 3.16396 14.8332 5.83333C14.8332 8.50271 12.6692 10.6667 9.99984 10.6667C7.33046 10.6667 5.1665 8.50271 5.1665 5.83333ZM9.99984 0C6.77818 0 4.1665 2.61167 4.1665 5.83333C4.1665 9.05499 6.77818 11.6667 9.99984 11.6667C13.2215 11.6667 15.8332 9.05499 15.8332 5.83333C15.8332 2.61167 13.2215 0 9.99984 0ZM1.1665 20.9444C1.1665 18.754 2.8946 17 4.99984 17H14.9998C17.1051 17 18.8332 18.754 18.8332 20.9444V22.6667H1.1665V20.9444ZM4.99984 16C2.3186 16 0.166504 18.2257 0.166504 20.9444V23.1667C0.166504 23.4428 0.390362 23.6667 0.666504 23.6667H19.3332C19.6093 23.6667 19.8332 23.4428 19.8332 23.1667V20.9444C19.8332 18.2257 17.6811 16 14.9998 16H4.99984Z" fill="black"/>
</svg>
