<svg width="24" height="24" viewBox="0 0 24 24" fill="none" xmlns="http://www.w3.org/2000/svg">
<path fill-rule="evenodd" clip-rule="evenodd" d="M8.375 7C8.375 4.99797 9.99797 3.375 12 3.375C14.002 3.375 15.625 4.99797 15.625 7C15.625 9.00203 14.002 10.625 12 10.625C9.99797 10.625 8.375 9.00203 8.375 7ZM12 2.625C9.58375 2.625 7.625 4.58375 7.625 7C7.625 9.41625 9.58375 11.375 12 11.375C14.4162 11.375 16.375 9.41625 16.375 7C16.375 4.58375 14.4162 2.625 12 2.625ZM5.375 18.3333C5.375 16.6905 6.67107 15.375 8.25 15.375H15.75C17.3289 15.375 18.625 16.6905 18.625 18.3333V19.625H5.375V18.3333ZM8.25 14.625C6.23907 14.625 4.625 16.2943 4.625 18.3333V20C4.625 20.2071 4.79289 20.375 5 20.375H19C19.2071 20.375 19.375 20.2071 19.375 20V18.3333C19.375 16.2943 17.7609 14.625 15.75 14.625H8.25Z" fill="#999CA0"/>
</svg>
