<svg width="24" height="24" viewBox="0 0 24 24" fill="none" xmlns="http://www.w3.org/2000/svg">
<g clip-path="url(#clip0_585_2795)">
<path d="M20.25 10.35C20.2195 9.26842 20.1171 8.57872 19.7703 7.9905C19.2765 7.15312 18.3881 6.687 16.6121 5.7564L14.9608 4.89015C13.511 4.13032 12.786 3.75 12.0066 3.75C11.2272 3.75 10.5023 4.1295 9.05239 4.89015L7.40107 5.7564C5.62508 6.687 4.73666 7.15312 4.24292 7.9905C3.75 8.82705 3.75 9.86902 3.75 11.9505V12.047C3.75 14.1302 3.75 15.1721 4.24292 16.0087C4.73666 16.846 5.62508 17.3122 7.40107 18.2436L9.05239 19.109C10.5023 19.8697 11.2272 20.25 12.0066 20.25C12.786 20.25 13.511 19.8705 14.9608 19.1098L16.6121 18.2436C18.3881 17.3122 19.2765 16.8469 19.7703 16.0095C20.1171 15.4213 20.2195 14.7316 20.25 13.65M19.4376 8.2875L16.1349 9.9375M16.1349 9.9375L15.7221 10.1437L12.0066 12M16.1349 9.9375V12.825M16.1349 9.9375L8.29113 5.8125M12.0066 12L4.57566 8.2875M12.0066 12V19.8375" stroke="#999CA0" stroke-width="0.75" stroke-linecap="round"/>
</g>
<defs>
<clipPath id="clip0_585_2795">
<rect width="18" height="18" fill="white" transform="translate(3 3)"/>
</clipPath>
</defs>
</svg>
