<svg width="16" height="17" viewBox="0 0 16 17" fill="none" xmlns="http://www.w3.org/2000/svg">
<g clip-path="url(#clip0_299_1728)">
<path fill-rule="evenodd" clip-rule="evenodd" d="M2.03741 7.57678C2.75126 7.32242 3.50245 6.98436 4.08173 6.49493C4.76973 5.91359 5.04953 5.16489 5.23743 4.37679C5.47866 3.36427 5.57505 2.2857 5.86756 1.27154C5.97587 0.894928 6.1843 0.752566 6.27374 0.689387C6.49979 0.529797 6.72828 0.487139 6.94326 0.503139C7.19803 0.5216 7.54799 0.618004 7.77814 1.04508C7.81097 1.10621 7.85362 1.19934 7.88234 1.32693C7.90326 1.42047 7.9168 1.71298 7.93895 1.83359C7.99434 2.13062 8.0407 2.42765 8.08418 2.72632C8.229 3.72037 8.31229 4.56467 8.76973 5.4779C9.39045 6.71769 10.0124 7.47626 10.8559 7.81226C11.6715 8.13718 12.6467 8.07607 13.8926 7.8213C14.0112 7.79258 14.1285 7.76796 14.2446 7.74786C14.7939 7.65186 15.3191 8.01247 15.427 8.55975C15.5349 9.10663 15.1857 9.63954 14.6413 9.75975C14.5277 9.78477 14.4157 9.80857 14.3049 9.83031C12.6212 10.2471 10.6721 11.7347 9.53936 13.0373C9.19023 13.4389 8.67906 14.5618 8.15763 15.2781C7.77281 15.8065 7.34039 16.1548 6.97731 16.2779C6.73403 16.3608 6.52891 16.3481 6.35947 16.3062C6.11332 16.2455 5.90902 16.1122 5.7523 15.9C5.66697 15.7839 5.58777 15.6285 5.55003 15.4299C5.53198 15.3343 5.52994 15.0915 5.53035 14.9815C5.42409 14.616 5.29404 14.259 5.19927 13.8902C4.97322 13.0102 4.52972 12.4531 4.00295 11.7171C3.51024 11.0283 2.98102 10.5954 2.20523 10.25C2.1043 10.2254 1.28994 10.026 1.00235 9.91154C0.58225 9.74375 0.382035 9.46272 0.309419 9.31133C0.185932 9.05451 0.173225 8.83011 0.197841 8.64304C0.234354 8.36693 0.358252 8.13063 0.578149 7.93986C0.714354 7.8213 0.917843 7.706 1.19025 7.6498C1.40072 7.6059 1.95905 7.58047 2.03741 7.57678ZM6.81485 6.14251C6.8526 6.22661 6.8928 6.31113 6.93547 6.39647C7.8446 8.21226 8.86121 9.22601 10.0969 9.71791L10.1383 9.73391C9.31168 10.3477 8.56336 11.0336 7.99146 11.6912C7.75597 11.962 7.44419 12.5245 7.10737 13.1013C6.80132 12.1064 6.30081 11.4032 5.67147 10.5232C5.19065 9.85166 4.68686 9.34623 4.06778 8.93433C4.54819 8.68776 5.00644 8.39894 5.40562 8.06171C6.07024 7.50007 6.50962 6.84938 6.81485 6.14251Z" fill="#FA5959"/>
</g>
<defs>
<clipPath id="clip0_299_1728">
<rect width="16" height="16" fill="white" transform="translate(0 0.5)"/>
</clipPath>
</defs>
</svg>
