<svg width="9" height="7" viewBox="0 0 9 7" fill="none" xmlns="http://www.w3.org/2000/svg">
<path d="M7.97127 1.03377L2.97127 6.03377C2.94224 6.06282 2.90778 6.08587 2.86984 6.1016C2.83191 6.11733 2.79124 6.12542 2.75017 6.12542C2.70911 6.12542 2.66844 6.11733 2.6305 6.1016C2.59257 6.08587 2.5581 6.06282 2.52908 6.03377L0.34158 3.84627C0.282942 3.78763 0.25 3.7081 0.25 3.62517C0.25 3.54225 0.282942 3.46272 0.34158 3.40408C0.400218 3.34544 0.479748 3.3125 0.562674 3.3125C0.6456 3.3125 0.72513 3.34544 0.783767 3.40408L2.75017 5.37088L7.52908 0.59158C7.58772 0.532942 7.66725 0.5 7.75017 0.5C7.8331 0.5 7.91263 0.532942 7.97127 0.59158C8.02991 0.650218 8.06285 0.729748 8.06285 0.812674C8.06285 0.8956 8.02991 0.97513 7.97127 1.03377Z" fill="white"/>
</svg>
