<svg width="18" height="19" viewBox="0 0 18 19" fill="none" xmlns="http://www.w3.org/2000/svg">
<path d="M9.389 9.11079V8.83301L9.389 1.49967C9.389 1.39653 9.34803 1.29762 9.2751 1.22469M9.389 9.11079L9.2751 1.22469M9.389 9.11079H9.66678H17.0001C17.1033 9.11079 17.2022 9.15176 17.2751 9.22469C17.348 9.29762 17.389 9.39653 17.389 9.49967C17.389 9.60281 17.348 9.70173 17.2751 9.77466C17.2022 9.84759 17.1033 9.88856 17.0001 9.88856H9.66678H9.389V10.1663V17.4997C9.389 17.6028 9.34803 17.7017 9.2751 17.7747C9.20217 17.8476 9.10325 17.8886 9.00011 17.8886C8.89697 17.8886 8.79806 17.8476 8.72513 17.7747C8.65219 17.7017 8.61122 17.6028 8.61122 17.4997V10.1263V9.84856H8.33345L1.00011 9.84856H0.986241L0.97244 9.84995C0.925669 9.85463 0.878437 9.84923 0.833927 9.83412C0.789415 9.819 0.748663 9.79452 0.714416 9.76233C0.680166 9.73014 0.653215 9.69097 0.63538 9.64748C0.617545 9.60399 0.609239 9.55718 0.611022 9.51021L0.611222 9.51022V9.49967C0.611222 9.39653 0.652194 9.29762 0.725125 9.22469C0.798056 9.15176 0.896971 9.11079 1.00011 9.11079L8.33345 9.11079H8.61122V8.83301L8.61122 1.49967C8.61122 1.39653 8.65219 1.29762 8.72513 1.22469L8.52888 1.02844L8.72513 1.22469C8.79806 1.15176 8.89697 1.11079 9.00011 1.11079C9.10325 1.11079 9.20217 1.15176 9.2751 1.22469M9.389 9.11079L9.47152 1.02827L9.2751 1.22469" fill="#161616" stroke="#161616" stroke-width="0.555556"/>
</svg>
