<svg width="24" height="25" viewBox="0 0 24 25" fill="none" xmlns="http://www.w3.org/2000/svg">
<path d="M23 10.3C22.9593 8.8579 22.8228 7.9383 22.3604 7.154C21.7021 6.0375 20.5175 5.416 18.1495 4.1752L15.9478 3.0202C14.0146 2.0071 13.048 1.5 12.0088 1.5C10.9696 1.5 10.003 2.006 8.06986 3.0202L5.86809 4.1752C3.5001 5.416 2.31555 6.0375 1.65723 7.154C1 8.2694 1 9.6587 1 12.434V12.5627C1 15.3402 1 16.7295 1.65723 17.8449C2.31555 18.9614 3.5001 19.5829 5.86809 20.8248L8.06986 21.9787C10.003 22.9929 10.9696 23.5 12.0088 23.5C13.048 23.5 14.0146 22.994 15.9478 21.9798L18.1495 20.8248C20.5175 19.5829 21.7021 18.9625 22.3604 17.846C22.8228 17.0617 22.9593 16.1421 23 14.7M21.9167 7.55L17.5132 9.75M17.5132 9.75L16.9628 10.025L12.0088 12.5M17.5132 9.75V13.6M17.5132 9.75L7.05484 4.25M12.0088 12.5L2.10088 7.55M12.0088 12.5V22.95" stroke="#161616" stroke-linecap="round"/>
</svg>
