<svg width="40" height="40" viewBox="0 0 40 40" fill="none" xmlns="http://www.w3.org/2000/svg">
<path d="M22.328 26.671L22.3279 26.6709L15.7472 20.1142C15.7323 20.0994 15.7205 20.0817 15.7124 20.0623L15.2525 20.2532L15.7124 20.0623C15.7044 20.0428 15.7002 20.022 15.7002 20.0009C15.7002 19.9799 15.7044 19.959 15.7124 19.9396C15.7205 19.9202 15.7323 19.9025 15.7472 19.8877C15.7472 19.8877 15.7472 19.8876 15.7472 19.8876L22.3237 13.334C22.3424 13.3168 22.3669 13.3074 22.3923 13.3077C22.4185 13.3079 22.4436 13.3185 22.4621 13.3371C22.4806 13.3556 22.4911 13.3807 22.4913 13.4069C22.4914 13.4323 22.482 13.4568 22.4648 13.4754L16.2725 19.6462L15.9171 20.0003L16.2725 20.3545L22.4691 26.5295C22.4692 26.5296 22.4692 26.5296 22.4693 26.5297C22.488 26.5484 22.4985 26.5737 22.4985 26.6002C22.4985 26.6267 22.488 26.6521 22.4693 26.6709C22.4506 26.6896 22.4252 26.7002 22.3988 26.7002C22.3722 26.7002 22.3468 26.6897 22.328 26.671Z" fill="#161616" stroke="#161616"/>
</svg>
