<svg width="40" height="40" viewBox="0 0 40 40" fill="none" xmlns="http://www.w3.org/2000/svg">
<path d="M17.672 13.329L17.6721 13.3291L24.2528 19.8858C24.2677 19.9006 24.2795 19.9183 24.2876 19.9377L24.7475 19.7468L24.2876 19.9377C24.2956 19.9572 24.2998 19.978 24.2998 19.9991C24.2998 20.0201 24.2956 20.041 24.2876 20.0604C24.2795 20.0798 24.2677 20.0975 24.2528 20.1123C24.2528 20.1123 24.2528 20.1124 24.2528 20.1124L17.6763 26.666C17.6577 26.6832 17.6331 26.6926 17.6077 26.6923C17.5815 26.6921 17.5564 26.6815 17.5379 26.663C17.5194 26.6444 17.5089 26.6193 17.5087 26.5931C17.5086 26.5677 17.518 26.5432 17.5352 26.5246L23.7275 20.3538L24.0829 19.9997L23.7275 19.6455L17.5309 13.4705C17.5308 13.4704 17.5308 13.4704 17.5307 13.4703C17.512 13.4516 17.5015 13.4263 17.5015 13.3998C17.5015 13.3733 17.512 13.3479 17.5307 13.3291C17.5494 13.3104 17.5748 13.2998 17.6012 13.2998C17.6278 13.2998 17.6532 13.3103 17.672 13.329Z" fill="#161616" stroke="#161616"/>
</svg>
