<svg width="32" height="32" viewBox="0 0 32 32" fill="none" xmlns="http://www.w3.org/2000/svg">
<path fill-rule="evenodd" clip-rule="evenodd" d="M12.5003 8C12.5003 6.067 14.0673 4.5 16.0003 4.5C17.9333 4.5 19.5003 6.067 19.5003 8V8.83333H12.5003V8ZM11.5003 9.83333V12C11.5003 12.2761 11.7242 12.5 12.0003 12.5C12.2765 12.5 12.5003 12.2761 12.5003 12V9.83333H19.5003V12C19.5003 12.2761 19.7242 12.5 20.0003 12.5C20.2765 12.5 20.5003 12.2761 20.5003 12V9.83333H23.5373L24.7937 26.1667H7.20693L8.46334 9.83333H11.5003ZM11.5003 8.83333V8C11.5003 5.51472 13.515 3.5 16.0003 3.5C18.4856 3.5 20.5003 5.51472 20.5003 8V8.83333H24.0003C24.2616 8.83333 24.4788 9.03449 24.4989 9.29498L25.8322 26.6283C25.8429 26.7672 25.7951 26.9042 25.7005 27.0064C25.6059 27.1086 25.4729 27.1667 25.3337 27.1667H6.66699C6.52772 27.1667 6.39476 27.1086 6.30013 27.0064C6.2055 26.9042 6.15778 26.7672 6.16847 26.6283L7.5018 9.29498C7.52184 9.03449 7.73906 8.83333 8.00033 8.83333H11.5003Z" fill="#161616"/>
</svg>
